<?xml version="1.0" encoding="UTF-8" standalone="no"?>
<!-- Created with Inkscape (http://www.inkscape.org/) -->

<svg
   width="210mm"
   height="297mm"
   viewBox="0 0 210 297"
   version="1.1"
   id="svg660"
   inkscape:version="1.1 (ce6663b3b7, 2021-05-25)"
   sodipodi:docname="gm2_Feynman.svg"
   xmlns:inkscape="http://www.inkscape.org/namespaces/inkscape"
   xmlns:sodipodi="http://sodipodi.sourceforge.net/DTD/sodipodi-0.dtd"
   xmlns="http://www.w3.org/2000/svg"
   xmlns:svg="http://www.w3.org/2000/svg">
  <sodipodi:namedview
     id="namedview662"
     pagecolor="#ffffff"
     bordercolor="#666666"
     borderopacity="1.0"
     inkscape:pageshadow="2"
     inkscape:pageopacity="0.0"
     inkscape:pagecheckerboard="0"
     inkscape:document-units="mm"
     showgrid="false"
     inkscape:zoom="0.67081229"
     inkscape:cx="107.33256"
     inkscape:cy="561.25984"
     inkscape:window-width="1584"
     inkscape:window-height="1140"
     inkscape:window-x="0"
     inkscape:window-y="24"
     inkscape:window-maximized="0"
     inkscape:current-layer="layer1" />
  <defs
     id="defs657" />
  <g
     inkscape:label="Layer 1"
     inkscape:groupmode="layer"
     id="layer1">
    <path
       style="fill:#2b0000;stroke-width:0.264583"
       id="path757"
       d="m 56.858569,21.688101 c -1.047605,0.655166 -3.78759,1.806522 -3.665956,3.474479 0.01572,0.215673 0.132845,0.411584 0.199266,0.617376 0.144944,0.186678 0.273547,0.387282 0.434837,0.560034 0.34966,0.374507 0.857478,0.729787 1.2304,1.072878 0.681093,0.626615 1.142402,1.254572 1.564838,2.07069 0.04626,0.268986 0.140933,0.534032 0.138772,0.806958 -0.0122,1.537448 -1.476365,3.139514 -2.298388,4.351583 -1.163968,1.929403 -0.963869,2.730302 0.534352,4.301591 0.776793,0.815879 2.402901,1.709158 2.108171,3.072696 -0.05308,0.24556 -0.197315,0.462097 -0.295973,0.693147 -0.639138,1.190615 -2.520678,2.279862 -2.970146,3.496178 -0.06697,0.181218 -0.04079,0.384233 -0.06118,0.57635 0.237328,0.855043 1.008573,1.227121 1.652341,1.740971 0.545166,0.435147 0.449948,0.375261 0.873554,0.906317 0.06436,0.186344 0.161544,0.364421 0.193085,0.559025 0.165489,1.020988 -0.573109,2.327458 -0.922129,3.27207 -0.149519,0.599173 0.237686,0.406961 0.496708,0.775444 0,0 0.0721,-0.03467 0.0721,-0.03467 v 0 c 0.373163,-0.530942 0.909198,-0.915686 1.144532,-1.539264 0.467661,-1.286996 1.263681,-2.637758 0.630311,-3.997938 -0.447582,-0.554797 -0.345548,-0.488479 -0.908968,-0.94156 -0.446765,-0.35927 -1.05007,-0.651764 -1.372552,-1.146699 -0.08367,-0.128413 -0.114978,-0.284154 -0.172466,-0.42623 0.02513,-0.164698 0.01185,-0.340088 0.07542,-0.494091 0.529913,-1.284023 2.340562,-2.216259 2.94014,-3.52112 0.08861,-0.25446 0.227787,-0.496631 0.265824,-0.763381 0.201768,-1.414944 -1.399471,-2.300891 -2.227083,-3.154283 -1.442108,-1.526863 -1.567577,-2.211642 -0.458454,-4.071877 0.843913,-1.239589 2.262677,-2.84145 2.160733,-4.43579 -0.01815,-0.283657 -0.13159,-0.553032 -0.197384,-0.829548 -0.465045,-0.819832 -0.956085,-1.449543 -1.661885,-2.08181 -0.32684,-0.29279 -0.900044,-0.717367 -1.208511,-1.047263 -0.148751,-0.159086 -0.265583,-0.345265 -0.398375,-0.517898 -0.233884,-0.76457 -0.221726,-1.078795 0.328969,-1.729653 0.177385,-0.209648 0.582952,-0.29529 0.595207,-0.569639 0.0093,-0.207216 -0.63414,0.426 -0.579847,0.225809 0.06252,-0.230518 0.411522,-0.242564 0.617283,-0.363846 0,0 1.14245,-0.90704 1.14245,-0.90704 z"
       inkscape:export-filename="/home/chen/Code/sunchen.me/assets/img/inkscape/gm2_tree.png"
       inkscape:export-xdpi="96"
       inkscape:export-ydpi="96" />
    <path
       style="fill:#2b0000;stroke-width:0.264583"
       id="path761"
       d="m 33.039391,68.527606 c 2.480863,-1.976387 5.194464,-3.633943 7.897773,-5.282924 3.224897,-1.936314 6.54106,-3.715557 9.883984,-5.438209 1.708687,-0.866159 3.430153,-1.706772 5.153728,-2.542805 0.171622,-0.07922 0.341228,-0.158766 0.504283,-0.254055 0,0 1.862137,-1.48571 1.862137,-1.48571 v 0 c -0.165552,0.03654 -0.295277,0.164523 -0.456454,0.214352 -1.771054,0.878084 -3.539497,1.761538 -5.30263,2.655417 -4.600316,2.394371 -9.127861,4.924856 -13.573356,7.596812 -2.696506,1.653185 -5.410109,3.309075 -7.869695,5.307354 0,0 1.90023,-0.770232 1.90023,-0.770232 z"
       inkscape:export-filename="/home/chen/Code/sunchen.me/assets/img/inkscape/gm2_tree.png"
       inkscape:export-xdpi="96"
       inkscape:export-ydpi="96" />
    <path
       style="fill:#2b0000;stroke-width:0.264583"
       id="path763"
       d="m 56.726179,56.280182 c 2.482707,0.156051 4.789133,1.162089 7.026677,2.1699 3.263564,1.611789 6.556931,3.155815 9.881542,4.637241 3.298005,1.501513 6.604032,2.982296 9.952487,4.368033 2.156293,0.830858 4.224451,1.860135 6.322753,2.821194 1.226706,0.514194 1.31431,0.437086 2.625564,0.117771 0,0 0.06634,-0.0447 0.06634,-0.0447 v 0 c 0.374372,-1.13611 0.149376,-0.685165 -0.827916,-1.304396 -2.080961,-1.034976 -4.221911,-1.938649 -6.380974,-2.79754 -3.368617,-1.363636 -6.696541,-2.81963 -10.0036,-4.32657 -3.330712,-1.468551 -6.627383,-3.007188 -9.884595,-4.633031 -2.238896,-1.022755 -4.526875,-2.041935 -7.004637,-2.292575 0,0 -1.773645,1.284677 -1.773645,1.284677 z"
       inkscape:export-filename="/home/chen/Code/sunchen.me/assets/img/inkscape/gm2_tree.png"
       inkscape:export-xdpi="96"
       inkscape:export-ydpi="96" />
    <path
       style="fill:#2b0000;stroke-width:0.264583"
       id="path765"
       d="m 37.000867,59.210852 c 2.39948,0.812401 4.860812,1.417561 7.256002,2.244294 0.671669,0.334994 1.657724,0.713816 1.724465,1.618858 0.06094,0.826297 -0.632669,1.597406 -1.068573,2.210485 0.109516,0.3756 -0.861063,0.688481 -0.774269,1.139394 0.01916,0.09956 0.612632,0.156419 0.684641,0.165894 0,0 0.07012,-0.03851 0.07012,-0.03851 v 0 c 0.637974,-0.811707 1.681208,-1.271286 2.195595,-2.21529 0.465328,-0.700985 1.108239,-1.498248 0.954997,-2.414122 -0.166687,-0.996238 -1.176477,-1.367843 -1.981533,-1.693225 -2.460159,-0.760984 -4.985295,-1.290418 -7.427246,-2.111036 0,0 -1.634199,1.093258 -1.634199,1.093258 z"
       inkscape:export-filename="/home/chen/Code/sunchen.me/assets/img/inkscape/gm2_tree.png"
       inkscape:export-xdpi="96"
       inkscape:export-ydpi="96" />
    <path
       style="fill:#2b0000;stroke-width:0.264583"
       id="path767"
       d="m 73.366243,58.746662 c 1.256924,1.310926 2.634993,2.508025 3.641876,4.0314 0.09003,0.591892 0.241831,0.699003 -0.240673,1.183931 -0.221729,0.222843 -1.04811,0.406826 -0.767353,0.548241 0.284615,0.143359 1.106099,-0.484172 0.79166,-0.535998 -0.417587,-0.06883 -0.786387,0.313155 -1.178576,0.472223 -0.469326,0.190352 -0.937302,0.384016 -1.405953,0.576021 -1.755029,0.765332 -0.95925,0.490776 -2.358277,0.903529 0,0 -0.06352,0.04863 -0.06352,0.04863 v 0 c 0.928097,-0.19549 0.498964,-0.199422 1.285459,-0.07159 1.938753,-0.342791 3.154966,-1.092184 4.930492,-2.194869 0.454332,-0.28216 0.963338,-0.725017 0.990116,-1.322139 0.0104,-0.231997 -0.131471,-0.445466 -0.197204,-0.6682 -1.189104,-1.405347 -2.699446,-2.491025 -3.910158,-3.881326 0,0 -1.517891,0.910143 -1.517891,0.910143 z"
       inkscape:export-filename="/home/chen/Code/sunchen.me/assets/img/inkscape/gm2_tree.png"
       inkscape:export-xdpi="96"
       inkscape:export-ydpi="96" />
    <path
       id="path775"
       style="fill:#2b0000;stroke-width:0.999999"
       transform="scale(0.26458333)"
       d="m 106.37891,285.40234 c 0.054,0.2317 0.11469,0.46387 0.1582,0.69336 0.0698,0.012 0.13182,0.0381 0.19922,0.0547 -0.0403,-0.28189 -0.0977,-0.48469 -0.18945,-0.61133 0.0889,-0.0804 0.13927,-0.13023 0.041,-0.0723 -0.0243,0.0143 -0.0462,0.0268 -0.0703,0.041 -0.0402,-0.0459 -0.0851,-0.0833 -0.13867,-0.10547 z m -13.371098,2.80078 c -0.0013,0.006 -0.0046,0.0157 -0.0059,0.0215 -0.0654,0.31117 0.03218,0.61013 0.177735,0.90625 0.01153,-0.005 0.0236,-0.009 0.03516,-0.0137 -0.0035,-0.24542 -0.0057,-0.49093 -0.0078,-0.73633 -0.05533,-0.0512 -0.154154,-0.1358 -0.199219,-0.17774 z" />
    <path
       id="path777"
       style="fill:#2b0000;stroke-width:0.999999"
       transform="scale(0.26458333)"
       d="m 130.33203,272.83203 c -2.37005,0.0209 -6.29294,1.22045 -8.0332,0.9707 l -5.52344,4.07813 c 5.91227,-0.15678 9.64027,-1.18842 15.03906,-3.63281 l 0.24219,-0.1836 c -0.0921,-0.3253 0.0172,-0.80889 -0.27734,-0.97461 -0.34053,-0.19148 -0.84314,-0.26313 -1.44727,-0.25781 z" />
    <path
       id="path783"
       style="fill:#2b0000;stroke-width:0.999999"
       transform="scale(0.26458333)"
       d="m 332.58203,298.24023 c -0.17664,0.14327 -0.35996,0.29877 -0.54297,0.45508 0.009,0.0165 0.0202,0.0324 0.0293,0.0488 0.17003,-0.16981 0.34179,-0.33671 0.51367,-0.50391 z" />
    <path
       id="path785"
       style="fill:#2b0000;stroke-width:0.999999"
       transform="scale(0.26458333)"
       d="m 372.95898,285.14844 c -1.42863,0.001 -4.36201,0.28068 -4.875,0.32226 l -6.0957,4.4668 c 4.50079,-0.007 8.38165,-1.74901 12.48438,-3.39062 l 0.24218,-0.18165 c -0.35172,-0.38863 -0.55342,-1.01927 -1.05664,-1.16601 -0.12125,-0.0354 -0.36953,-0.0511 -0.69922,-0.0508 z" />
    <path
       style="fill:#2b0000;stroke-width:0.264583"
       id="path787"
       d="m 60.32941,18.050182 c 1.837539,0.891459 3.802467,2.030206 4.843505,3.869483 0.227073,0.401191 0.34422,0.855325 0.516331,1.282987 0.10037,0.936687 0.272265,1.408074 -0.06774,2.30488 -0.09979,0.26322 -0.745595,0.750097 -0.468074,0.70292 3.416395,-0.580773 1.157004,-0.520471 1.059474,-1.09013 -0.04272,-0.249479 0.02617,-0.505541 0.03926,-0.758311 0.462086,-1.564219 1.372494,-2.920614 2.387467,-4.179026 0.694632,-0.861238 1.533544,-1.603098 2.194563,-2.490397 0.142962,-0.191901 0.220607,-0.424723 0.330912,-0.637085 0,0 -0.07411,0.03013 -0.07411,0.03013 v 0 c -0.607758,0.418026 -1.240443,0.801945 -1.823272,1.254078 -1.871414,1.451761 -3.751898,3.629045 -4.699178,5.820288 -0.173595,0.401561 -0.24793,0.839093 -0.371895,1.258639 0.03266,0.293195 -0.01916,0.608822 0.09798,0.879584 0.560551,1.295855 2.565736,-0.809355 2.686491,-0.905371 0.340977,-0.271123 0.449525,-1.535816 0.44195,-1.789428 -0.0127,-0.425444 -0.133205,-0.840782 -0.199808,-1.261173 -0.19127,-0.433758 -0.327925,-0.89597 -0.57381,-1.301273 -1.107689,-1.825854 -3.094347,-3.01013 -4.969055,-3.896873 0,0 -1.350986,0.906074 -1.350986,0.906074 z"
       inkscape:export-filename="/home/chen/Code/sunchen.me/assets/img/inkscape/gm2_tree.png"
       inkscape:export-xdpi="96"
       inkscape:export-ydpi="96" />
    <path
       style="fill:#2b0000;stroke-width:0.264583"
       id="path842"
       d="m 59.721538,109.44598 c -1.041088,0.89557 -2.186689,1.86689 -2.738414,3.16579 -0.09668,0.22761 -0.137234,0.47516 -0.205851,0.71274 0.0031,0.23235 -0.03373,0.46869 0.0092,0.69705 0.240387,1.27731 1.529421,2.16898 2.385417,3.03039 1.191477,1.47924 0.292047,2.39381 -0.543634,3.78435 -0.702937,1.15872 -1.446453,2.49054 -0.648171,3.80144 0.139427,0.22896 0.334462,0.41904 0.501695,0.62855 0.930611,1.05505 2.522373,1.62935 3.327588,2.79221 0.123129,0.17782 0.174908,0.39564 0.262363,0.59345 -0.0093,0.21196 0.02418,0.43021 -0.02792,0.63587 -0.310473,1.22574 -2.048568,2.68831 -2.912647,3.60076 -1.465802,1.65308 -0.719889,2.22503 0.876985,3.16243 0.507804,0.31865 1.27599,0.59978 1.458471,1.2562 0.19051,0.68531 -0.36286,1.42656 -0.664676,1.97627 -0.292417,0.72042 -0.376452,0.43045 -0.01132,0.90566 0,0 0.07343,-0.0318 0.07343,-0.0318 v 0 c 1.394092,-1.12037 0.7884,-0.53345 1.850038,-1.72609 1.082254,-1.82301 1.079884,-2.54619 -0.884777,-3.56325 -1.542095,-0.87047 -2.118532,-1.24821 -0.73895,-2.79747 0.902597,-0.95691 2.633017,-2.42442 2.865734,-3.75579 0.04124,-0.2359 -0.01363,-0.47876 -0.02043,-0.71815 -0.106354,-0.21453 -0.177564,-0.45042 -0.319064,-0.64358 -0.836892,-1.14248 -2.405006,-1.70656 -3.349442,-2.75525 -0.158327,-0.19266 -0.344617,-0.36541 -0.474977,-0.578 -0.7561,-1.23302 0.05926,-2.52677 0.690372,-3.60626 0.870251,-1.48005 1.639982,-2.47227 0.366064,-3.993 -1.050213,-0.97592 -2.430664,-1.92492 -2.349468,-3.51277 0.06487,-0.2206 0.105513,-0.44983 0.194614,-0.66182 0.539671,-1.28389 1.690217,-2.21409 2.730669,-3.0775 0,0 -1.702937,0.67752 -1.702937,0.67752 z"
       inkscape:export-filename="/home/chen/Code/sunchen.me/assets/img/inkscape/gm2_SM_loop.png"
       inkscape:export-xdpi="96"
       inkscape:export-ydpi="96" />
    <path
       style="fill:#2b0000;stroke-width:0.264583"
       id="path844"
       d="m 60.917579,138.51155 c -2.031387,1.64434 -4.092366,3.24995 -6.191272,4.80711 -3.349908,2.31943 -6.636271,4.71654 -9.765942,7.32644 -0.745236,0.63776 -1.522426,1.29914 -2.26255,1.94583 -0.572352,0.5001 -1.626508,1.24958 -1.067559,1.29708 0,0 0.07427,-0.0297 0.07427,-0.0297 v 0 c 1.833372,-0.9956 3.251848,-2.53417 4.845666,-3.85513 3.093527,-2.58959 6.346254,-4.96468 9.654818,-7.27184 2.101027,-1.56551 4.168974,-3.17378 6.20467,-4.82348 0,0 -1.492099,0.60371 -1.492099,0.60371 z"
       inkscape:export-filename="/home/chen/Code/sunchen.me/assets/img/inkscape/gm2_SM_loop.png"
       inkscape:export-xdpi="96"
       inkscape:export-ydpi="96" />
    <path
       style="fill:#2b0000;stroke-width:0.264583"
       id="path852"
       d="m 62.967115,139.09454 c 1.600385,2.52712 3.880194,4.51093 6.160897,6.40323 3.098342,2.37104 6.385338,4.47439 9.52754,6.78597 1.455748,1.05793 2.807607,2.25381 4.279537,3.28987 0.286041,0.20133 0.557829,0.43048 0.872863,0.58251 0.318847,0.15386 0.673794,0.21762 1.01069,0.32643 0.455433,-0.0476 0.910865,-0.0951 1.366295,-0.14269 0,0 0.06653,-0.0444 0.06653,-0.0444 v 0 c -0.01119,-0.24246 -0.02241,-0.48493 -0.03361,-0.72739 -1.086564,-0.9633 -0.144142,-0.18844 -1.515332,-1.11575 -1.498711,-1.01354 -2.86407,-2.21102 -4.345662,-3.24825 -3.171365,-2.27515 -6.465999,-4.37408 -9.567161,-6.74552 -2.244733,-1.87468 -4.530614,-3.83284 -6.009392,-6.39845 0,0 -1.8132,1.03447 -1.8132,1.03447 z"
       inkscape:export-filename="/home/chen/Code/sunchen.me/assets/img/inkscape/gm2_SM_loop.png"
       inkscape:export-xdpi="96"
       inkscape:export-ydpi="96" />
    <path
       style="fill:#2b0000;stroke-width:0.264583"
       id="path854"
       d="m 19.054523,170.46981 c 2.414478,-2.29346 4.813762,-4.59847 7.303576,-6.81086 3.458043,-2.96667 7.017741,-5.8112 10.592786,-8.63469 1.002578,-0.79354 2.012392,-1.57806 3.011212,-2.37636 0.154861,-0.12377 0.765929,-0.48764 0.764897,-0.7911 -0.353279,0.0459 -0.187063,0.0159 -0.499491,0.0852 0,0 -0.06838,0.0415 -0.06838,0.0415 v 0 c -0.28928,0.19418 -0.107177,0.0777 -0.555964,0.33379 -1.555215,1.01625 -2.926344,2.27713 -4.39815,3.40684 -3.523951,2.81582 -7.040856,5.64236 -10.455738,8.59051 -2.463023,2.20876 -4.84263,4.50217 -7.236097,6.78529 0,0 1.54135,-0.63018 1.54135,-0.63018 z"
       inkscape:export-filename="/home/chen/Code/sunchen.me/assets/img/inkscape/gm2_SM_loop.png"
       inkscape:export-xdpi="96"
       inkscape:export-ydpi="96" />
    <path
       style="fill:#2b0000;stroke-width:0.264583"
       id="path858"
       d="m 41.537815,152.67953 c 0.828448,1.08058 1.79641,2.21947 3.142293,2.65739 0.352295,0.11463 0.727913,0.13837 1.091869,0.20756 2.544056,0.0108 4.780095,-1.27623 7.041848,-2.27621 2.047211,-0.81741 2.623233,-0.72636 4.241324,0.68156 1.020746,0.95613 2.182423,1.75016 3.640545,1.70893 0.31886,-0.009 0.633081,-0.0789 0.949624,-0.11832 1.740984,-0.27904 3.193756,-1.40576 4.901096,-1.757 0.873213,0.003 1.370328,0.69008 1.966627,1.22569 0.621263,0.55803 0.530955,0.46021 1.240435,0.93261 1.751066,1.01382 3.576045,0.54419 5.37264,-0.0618 0.881378,-0.20028 1.714355,-0.91888 2.653326,-0.87677 0.29095,0.013 0.461677,0.1314 0.713214,0.25643 0.68617,0.5514 1.375341,0.94901 2.262042,1.01158 1.420675,-0.19618 2.90822,-0.87964 3.797527,-2.03038 0.125683,-0.21122 0.305083,-0.43184 0.33386,-0.68575 -0.01066,0.0158 0.01011,-0.0719 -0.0067,-0.0606 -1.226341,0.82425 -2.45373,0.96243 -1.418799,1.52317 0.188486,0.0617 0.373867,0.0251 0.555953,-0.0354 0.384061,-0.12794 0.797647,0.3547 1.096055,0.55439 1.493446,0.9328 2.993302,1.85534 4.489222,2.78422 2.962913,1.76336 5.769065,3.7683 8.612434,5.71388 3.11858,2.07288 6.24737,4.12785 9.30633,6.28829 1.20423,0.86029 2.41555,1.71136 3.65764,2.51646 0.47167,0.30572 1.42821,0.99343 2.05616,1.03373 0.47322,0.0304 0.93639,-0.15043 1.40458,-0.22564 0,0 0.0667,-0.0441 0.0667,-0.0441 v 0 c 0.0612,-0.27021 0.28355,-0.55228 0.18351,-0.81063 -0.10867,-0.28064 -1.71018,-1.14638 -1.78294,-1.19096 -1.26608,-0.77565 -2.47922,-1.63285 -3.69542,-2.48318 -3.08284,-2.13779 -6.22943,-4.17881 -9.34704,-6.26512 -2.842187,-1.94384 -5.649125,-3.94296 -8.588966,-5.73903 -1.472496,-0.93847 -2.938899,-1.88635 -4.409029,-2.82849 -0.194231,-0.12912 -0.888508,-0.74945 -1.115365,-0.76362 -0.06096,-0.004 -0.117655,0.0328 -0.176482,0.0493 -0.131858,0.0995 -0.291388,0.15131 -0.450929,0.18759 -1.297604,-0.1567 2.055664,-1.77164 -2.450468,0.7526 -0.105865,0.21012 -0.213741,0.41883 -0.368779,0.5989 -0.536514,0.59106 -1.683345,1.18304 1.184103,-0.51939 0.110813,-0.0658 -0.230436,0.11595 -0.349387,0.16554 -0.40294,0.16798 -0.383461,0.14298 -0.807212,0.23051 -0.882854,0.0184 -1.549818,-0.36853 -2.229689,-0.90921 -0.286983,-0.16852 -0.45084,-0.30316 -0.794332,-0.3469 -0.9627,-0.12259 -1.832478,0.62747 -2.719848,0.85502 -1.74298,0.61686 -3.519239,1.15033 -5.25939,0.21652 -0.705805,-0.44989 -0.610031,-0.34818 -1.22478,-0.89724 -0.472864,-0.42234 -0.936122,-1.02025 -1.542833,-1.26586 -0.174662,-0.0707 -0.369774,-0.0728 -0.554662,-0.10914 -1.740001,0.29089 -3.187803,1.46172 -4.931222,1.79027 -0.308057,0.0501 -0.612738,0.12982 -0.924169,0.1503 -1.425882,0.0938 -2.584029,-0.65343 -3.589573,-1.5823 -1.685049,-1.48264 -2.281914,-1.68584 -4.454006,-0.80395 -2.258721,1.01203 -4.485545,2.3076 -7.019589,2.39762 -0.355438,-0.0547 -0.721212,-0.0629 -1.066318,-0.16409 -1.339739,-0.39268 -2.308524,-1.5268 -3.21101,-2.51624 0,0 -1.472031,0.87724 -1.472031,0.87724 z"
       inkscape:export-filename="/home/chen/Code/sunchen.me/assets/img/inkscape/gm2_SM_loop.png"
       inkscape:export-xdpi="96"
       inkscape:export-ydpi="96" />
    <path
       id="path862"
       style="fill:#2b0000;stroke-width:0.999999"
       transform="scale(0.26458333)"
       d="m 408.46094,696.57031 c -0.91716,0.38127 -1.52262,0.95548 -2,1.76367 0.56495,-0.49733 1.13712,-0.98956 1.72656,-1.47265 0.0815,-0.0887 0.18994,-0.20049 0.27344,-0.29102 z" />
    <path
       style="fill:#2b0000;stroke-width:0.264583"
       id="path864"
       d="m 65.888218,109.20987 c 1.405581,0.68583 2.682494,1.99529 3.182202,3.50765 0.09879,0.299 0.110302,0.62006 0.165452,0.93009 -0.05207,0.54111 -0.01818,0.99488 -0.334097,1.46564 -0.09537,0.14212 -0.536607,0.42412 -0.39488,0.32817 2.492306,-1.68728 1.395023,-0.34018 1.26592,-1.37307 -0.03096,-0.24773 7.94e-4,-0.49932 0.0011,-0.74898 0.641578,-3.30062 2.555423,-5.12066 5.209686,-6.9735 0.246247,-0.13526 0.492495,-0.27052 0.738743,-0.40579 0,0 0.06254,-0.0499 0.06254,-0.0499 v 0 c -0.680776,0.31307 -1.361554,0.62613 -2.04233,0.9392 -0.588507,0.35971 -1.207164,0.67421 -1.765522,1.07915 -2.105533,1.52701 -3.626882,3.79776 -4.062026,6.36428 0.03189,0.60836 0.0053,1.39018 0.323421,1.33528 1.984058,-0.34241 2.577971,-1.0834 2.556897,-2.79548 -0.07428,-0.31645 -0.109247,-0.6448 -0.22284,-0.94937 -0.578681,-1.55153 -1.918573,-2.85707 -3.360582,-3.60597 0,0 -1.323615,0.95259 -1.323615,0.95259 z"
       inkscape:export-filename="/home/chen/Code/sunchen.me/assets/img/inkscape/gm2_SM_loop.png"
       inkscape:export-xdpi="96"
       inkscape:export-ydpi="96" />
    <path
       style="fill:#2b0000;stroke-width:0.264583"
       id="path866"
       d="m 59.018839,156.57826 c 2.337612,1.88799 3.536317,4.64836 4.571415,7.38622 0.331089,1.29323 1.301835,3.79671 0.254688,5.03563 -0.139489,0.16504 -0.682631,0.49664 -0.567135,0.314 0.259887,-0.41095 0.683297,-0.69195 1.024946,-1.03793 -0.167659,-0.21172 -0.390417,-0.38967 -0.502978,-0.63516 -1.114118,-2.42983 0.859433,-5.30375 2.154174,-7.20296 0.358706,-0.4528 0.717412,-0.90561 1.076118,-1.35841 0.137753,-0.27836 0.229548,-0.58466 0.413261,-0.83507 0.198244,-0.27022 0.477795,-0.4701 0.716695,-0.70514 0,0 -0.07414,0.03 -0.07414,0.03 v 0 c -1.453483,1.13136 -3.028461,2.14985 -4.06709,3.71446 -1.342758,2.0287 -3.247015,4.84362 -1.897624,7.36369 0.147656,0.27575 0.406077,0.47588 0.609113,0.71383 0.275027,-0.0877 2.345002,-0.46082 2.758173,-1.1224 0.873154,-1.39813 -0.129783,-3.67646 -0.524981,-5.0392 -1.075973,-2.73615 -2.283288,-5.55677 -4.62656,-7.45862 0,0 -1.318074,0.83701 -1.318074,0.83701 z"
       inkscape:export-filename="/home/chen/Code/sunchen.me/assets/img/inkscape/gm2_SM_loop.png"
       inkscape:export-xdpi="96"
       inkscape:export-ydpi="96" />
    <path
       style="fill:#2b0000;stroke-width:0.264583"
       id="path868"
       d="m 357.30968,248.77653 c -0.0937,-1.74908 -0.18703,-3.49806 -0.3012,-5.24597 -0.11581,-1.69703 -0.24995,-3.39274 -0.38539,-5.0883 -0.1133,-1.49124 -0.26019,-2.97967 -0.3687,-4.47125 -0.0547,-0.94365 -0.10679,-1.88763 -0.14346,-2.83219 -0.0196,-0.53302 -0.0251,-1.06638 -0.0272,-1.5997 0.013,-0.40412 -0.0356,-0.80405 -0.0961,-1.2024 -0.0776,-0.37093 -0.10565,-0.74936 -0.17455,-1.12155 -0.0496,-0.19443 -0.0214,-0.101 -0.0833,-0.28064 0,0 -0.0701,0.0387 -0.0701,0.0387 v 0 c 0.0615,0.17891 0.0335,0.0858 0.0827,0.2796 0.0687,0.37214 0.097,0.75045 0.17444,1.12132 0.0605,0.39801 0.10858,0.7976 0.0956,1.20136 0.003,0.5334 0.008,1.06685 0.0273,1.59994 0.0368,0.94464 0.0888,1.88871 0.14359,2.83243 0.10858,1.4916 0.25542,2.98005 0.36872,4.47131 0.13541,1.69552 0.26956,3.3912 0.38534,5.0882 0.11414,1.74787 0.20746,3.49683 0.30117,5.24588 0,0 0.0711,-0.0367 0.0711,-0.0367 z" />
    <path
       style="fill:#2b0000;stroke-width:0.264583"
       id="path872"
       d="m 177.85704,106.06215 c -0.88395,1.67673 -1.91364,3.41497 -2.09058,5.34614 -0.036,0.39255 0.0155,0.78825 0.0233,1.18237 0.17464,1.09928 0.74701,1.9401 1.45745,2.76152 0.35063,0.40542 0.83772,0.82791 1.10708,1.30763 0.11228,0.19996 0.15876,0.4303 0.23814,0.64545 -0.0326,0.24398 -0.0269,0.49619 -0.0976,0.73194 -0.40389,1.34548 -1.50236,2.3866 -2.19774,3.57349 -0.15215,0.2597 -0.26487,0.54058 -0.3973,0.81087 -0.46135,1.49894 0.91124,1.98764 1.68821,2.96954 0.164,0.20725 0.26999,0.45442 0.40499,0.68163 0.036,0.28305 0.12478,0.5643 0.10806,0.84914 -0.10464,1.78206 -1.6927,3.54728 -2.66921,4.9549 -1.09085,1.84192 -0.25321,2.13059 1.34592,2.8916 0.28724,0.16345 0.75576,0.37199 0.94828,0.68242 0.39349,0.63449 -0.27947,1.69966 -0.51643,2.26255 -0.0839,0.27406 -0.96411,1.93411 -0.56358,2.06438 0.20218,0.0658 0.42437,-0.0265 0.63656,-0.0397 0,0 0.0722,-0.0345 0.0722,-0.0345 v 0 c 0.26148,-0.20843 0.54438,-0.39251 0.78444,-0.62529 0.63886,-0.61948 0.74579,-1.55318 1.13645,-2.31676 0.62826,-1.52328 1.14485,-2.34726 -0.61694,-3.23764 -1.48697,-0.68387 -2.23389,-0.82405 -1.20232,-2.52878 1.02615,-1.4906 2.56889,-3.17755 2.58646,-5.09876 0.003,-0.31256 -0.10317,-0.61657 -0.15476,-0.92485 -0.15205,-0.2388 -0.27593,-0.49808 -0.45617,-0.7164 -0.73172,-0.88632 -2.04801,-1.31136 -1.65057,-2.68777 0.45757,-0.96137 0.27902,-0.66905 0.92117,-1.63416 0.57199,-0.85964 1.33234,-1.74412 1.56661,-2.78141 0.0587,-0.25967 0.0198,-0.53204 0.0297,-0.79806 -0.0952,-0.22826 -0.15559,-0.4744 -0.28562,-0.68478 -0.26927,-0.43564 -0.83568,-0.91181 -1.17365,-1.27338 -0.71627,-0.76629 -1.28102,-1.55357 -1.47389,-2.61134 -0.006,-0.38085 -0.0552,-0.76337 -0.0191,-1.14255 0.18334,-1.9247 1.2716,-3.59561 2.09848,-5.29004 0,0 -1.58797,0.71066 -1.58797,0.71066 z"
       inkscape:export-filename="/home/chen/Code/sunchen.me/assets/img/inkscape/gm2_bsm_loop.png"
       inkscape:export-xdpi="96"
       inkscape:export-ydpi="96" />
    <path
       style="fill:#2b0000;stroke-width:0.264583"
       id="path876"
       d="m 187.04338,103.88574 c 2.02358,0.21689 3.55136,1.40992 4.6624,3.07607 0.31062,0.46582 0.54897,0.97599 0.82345,1.46398 0.68698,1.52531 1.53826,4.60432 0.16282,6.03792 -0.12689,0.13226 -0.32767,0.16432 -0.4915,0.24648 0.5106,-0.38686 1.1384,-0.655 1.5318,-1.16057 0.11657,-0.14981 -0.18884,-0.338 -0.22001,-0.52524 -0.0526,-0.31606 -0.068,-0.64302 -0.0274,-0.96086 0.21803,-1.70962 1.19115,-3.02246 2.139,-4.39745 1.16007,-1.49201 2.59026,-2.70886 4.0903,-3.84041 1.20982,-0.91263 0.85305,-0.38198 1.24237,-1.05287 0,0 -0.0746,0.0288 -0.0746,0.0288 v 0 c -0.59885,0.30496 -1.21484,0.57837 -1.79654,0.91489 -2.09409,1.21148 -3.86392,2.94367 -5.39478,4.79288 -0.96532,1.42698 -1.94327,2.78274 -2.14383,4.54946 -0.0395,0.34812 -0.0315,0.7068 0.0368,1.05042 0.049,0.24611 0.0585,0.70495 0.30874,0.68659 0.83354,-0.0611 1.56486,-0.58761 2.34729,-0.88141 0.12088,-0.104 0.27475,-0.17895 0.36265,-0.312 1.13697,-1.72129 0.2667,-4.43114 -0.45768,-6.10808 -1.36614,-2.36771 -2.69251,-4.40694 -5.6375,-4.6721 0,0 -1.46375,1.06347 -1.46375,1.06347 z"
       inkscape:export-filename="/home/chen/Code/sunchen.me/assets/img/inkscape/gm2_bsm_loop.png"
       inkscape:export-xdpi="96"
       inkscape:export-ydpi="96" />
    <path
       style="fill:#2b0000;stroke-width:0.264583"
       id="path878"
       d="m 176.4414,140.56952 c -1.07097,0.97588 -2.1253,1.96734 -3.12596,3.01556 -1.46202,1.67842 -3.03481,3.25097 -4.61717,4.81451 -2.26384,2.24722 -4.48573,4.53553 -6.7843,6.74752 -3.30403,3.05196 -6.58064,6.13267 -9.8368,9.23563 -2.8323,2.66724 -5.65635,5.34165 -8.43384,8.06602 -2.04395,2.16988 -4.26522,4.14989 -6.54337,6.0674 -0.49955,0.52111 -0.62729,0.33252 -0.34385,0.59053 0,0 0.0744,-0.0295 0.0744,-0.0295 v 0 c 1.42773,-0.78414 0.72033,-0.35139 2.11736,-1.3061 2.31861,-1.88633 4.50382,-3.92249 6.55992,-6.09293 2.74144,-2.71065 5.52942,-5.37166 8.33091,-8.02018 3.25979,-3.11177 6.54281,-6.19829 9.86186,-9.24689 2.31253,-2.22625 4.55996,-4.51773 6.84268,-6.77432 1.59174,-1.57051 3.16374,-3.15897 4.6478,-4.83273 1.00744,-1.03729 2.06143,-2.02424 3.12075,-3.0079 0,0 -1.87035,0.77338 -1.87035,0.77338 z"
       inkscape:export-filename="/home/chen/Code/sunchen.me/assets/img/inkscape/gm2_bsm_loop.png"
       inkscape:export-xdpi="96"
       inkscape:export-ydpi="96" />
    <path
       style="fill:#2b0000;stroke-width:0.264583"
       id="path880"
       d="m 178.61094,142.6077 c 1.29741,1.37892 2.65765,2.68984 4.06025,3.96097 2.39981,2.04208 4.61616,4.2776 6.84101,6.50477 3.01887,2.93786 5.94502,5.9635 8.74707,9.10844 2.6695,3.06038 5.34592,6.11468 7.883,9.28646 1.89113,2.38679 3.73279,4.81199 5.52057,7.27703 1.05861,1.44409 2.01232,2.95844 2.9345,4.49173 0.1216,0.15076 0.18777,0.37371 0.36481,0.4523 0.36828,0.16347 1.30761,0.0432 1.67593,0.015 0,0 0.0678,-0.0424 0.0678,-0.0424 v 0 c 0.25644,-0.66099 0.61839,-1.07891 0.11525,-1.71685 -0.95402,-1.5236 -1.93661,-3.0295 -3.01761,-4.46734 -1.82292,-2.45028 -3.73188,-4.83339 -5.63311,-7.22308 -2.5737,-3.15224 -5.25656,-6.20993 -7.95168,-9.25862 -2.8171,-3.14209 -5.75225,-6.16504 -8.7854,-9.09983 -2.22815,-2.23157 -4.49011,-4.42772 -6.86862,-6.50035 -1.39355,-1.27293 -2.76364,-2.56931 -4.03158,-3.96952 0,0 -1.92224,1.18126 -1.92224,1.18126 z"
       inkscape:export-filename="/home/chen/Code/sunchen.me/assets/img/inkscape/gm2_bsm_loop.png"
       inkscape:export-xdpi="96"
       inkscape:export-ydpi="96" />
    <path
       style="fill:#2b0000;stroke-width:0.264583"
       id="path882"
       d="m 157.55466,161.32001 c 1.43501,0.21707 2.87445,0.43109 4.32396,0.28656 0.76529,-0.14731 1.48638,-0.43707 2.23459,-0.64634 0,0 0.0644,-0.0474 0.0644,-0.0474 v 0 c -0.27859,-0.16444 -0.30572,-0.42881 -0.66187,-0.49769 -1.35632,-0.16227 -2.73786,-0.12362 -4.08165,-0.41379 0,0 -1.87948,1.31865 -1.87948,1.31865 z"
       inkscape:export-filename="/home/chen/Code/sunchen.me/assets/img/inkscape/gm2_bsm_loop.png"
       inkscape:export-xdpi="96"
       inkscape:export-ydpi="96" />
    <path
       style="fill:#2b0000;stroke-width:0.264583"
       id="path884"
       d="m 168.34966,162.06842 c 1.3335,0.19396 2.68857,0.19842 4.03275,0.14722 0.66508,-0.0765 1.25881,-0.39148 1.86052,-0.66116 0,0 0.0648,-0.0469 0.0648,-0.0469 v 0 c 0.17382,-0.33949 0.34757,-0.54256 -0.12512,-0.60816 -1.33311,0.0297 -2.67511,0.0934 -3.99904,-0.10883 0,0 -1.83389,1.27787 -1.83389,1.27787 z"
       inkscape:export-filename="/home/chen/Code/sunchen.me/assets/img/inkscape/gm2_bsm_loop.png"
       inkscape:export-xdpi="96"
       inkscape:export-ydpi="96" />
    <path
       style="fill:#2b0000;stroke-width:0.264583"
       id="path886"
       d="m 178.71196,162.58053 c 0.87771,-0.12656 1.82036,0.12965 2.69236,-0.0312 0.18604,-0.0343 0.36155,-0.11151 0.54233,-0.16727 0.83458,-0.40847 0.47092,-0.26736 1.07004,-0.47378 0,0 0.0647,-0.0471 0.0647,-0.0471 v 0 c -0.0509,-0.2546 -0.0454,-0.0832 0.21955,-0.46543 -0.031,-0.0533 -0.0344,-0.14115 -0.0931,-0.16004 -0.12885,-0.0414 -0.27068,-0.002 -0.40601,-2.6e-4 -0.76781,0.008 -1.53535,0.0367 -2.3032,0.0427 0,0 -1.78662,1.30242 -1.78662,1.30242 z"
       inkscape:export-filename="/home/chen/Code/sunchen.me/assets/img/inkscape/gm2_bsm_loop.png"
       inkscape:export-xdpi="96"
       inkscape:export-ydpi="96" />
    <path
       style="fill:#2b0000;stroke-width:0.264583"
       id="path888"
       d="m 188.48618,162.80319 c 1.28727,-0.0932 2.57828,-0.072 3.86747,-0.0482 0.91022,0.12291 1.63818,-0.28241 2.41764,-0.69289 0,0 0.0642,-0.0477 0.0642,-0.0477 v 0 c 0.63697,-0.80807 0.23725,-0.65422 -0.51943,-0.68106 -1.32616,-0.0123 -2.65273,0.0235 -3.97648,0.10514 0,0 -1.85342,1.36477 -1.85342,1.36477 z"
       inkscape:export-filename="/home/chen/Code/sunchen.me/assets/img/inkscape/gm2_bsm_loop.png"
       inkscape:export-xdpi="96"
       inkscape:export-ydpi="96" />
    <path
       style="fill:#2b0000;stroke-width:0.264583"
       id="path894"
       d="m 175.19333,167.24421 c 1.40302,1.1445 2.60221,2.5629 4.10184,3.59007 0.34399,0.23561 0.72444,0.41298 1.08666,0.61946 1.4926,0.41223 0.79347,0.2189 2.09744,0.57981 0,0 0.0674,-0.043 0.0674,-0.043 v 0 c -0.48773,-0.87853 -0.23892,-0.40092 -0.73456,-1.43896 -0.88432,-0.92917 -1.78567,-1.62812 -2.73341,-2.48137 -0.54298,-0.48883 -1.05778,-1.00856 -1.60479,-1.49287 -0.17196,-0.15226 -0.3548,-0.29176 -0.5322,-0.43764 0,0 -1.74842,1.10452 -1.74842,1.10452 z"
       inkscape:export-filename="/home/chen/Code/sunchen.me/assets/img/inkscape/gm2_bsm_loop.png"
       inkscape:export-xdpi="96"
       inkscape:export-ydpi="96" />
    <path
       style="fill:#2b0000;stroke-width:0.264583"
       id="path896"
       d="m 180.77743,166.23771 c -1.16135,1.49507 -2.44092,2.92018 -3.41069,4.55432 -0.28634,0.4825 -0.72198,1.42727 -0.97555,1.96214 0,0 0.0734,-0.0317 0.0734,-0.0317 v 0 c 2.1481,-2.31307 4.28532,-4.644 6.08342,-7.24797 0,0 -1.77061,0.76325 -1.77061,0.76325 z"
       inkscape:export-filename="/home/chen/Code/sunchen.me/assets/img/inkscape/gm2_bsm_loop.png"
       inkscape:export-xdpi="96"
       inkscape:export-ydpi="96" />
    <path
       style="fill:#2b0000;stroke-width:0.264583"
       id="path1135"
       d="m 23.632204,160.47423 c 1.47586,0.22694 2.93904,-0.19132 4.40979,-0.24809 0.237709,0.0522 0.585994,0.0274 0.66118,0.35263 0.122405,0.52955 -0.574479,2.12602 -0.761756,2.63585 -0.101357,0.30519 -0.417177,0.95083 -0.228476,1.33618 0.06907,0.14105 0.257252,0.18025 0.385879,0.27037 0,0 0.07188,-0.0351 0.07188,-0.0351 v 0 c 0.542591,-0.70035 1.027403,-1.39345 1.261612,-2.26574 0.221351,-0.59469 1.237441,-2.65439 0.392637,-3.11163 -0.155133,-0.084 -0.344982,-0.0738 -0.517475,-0.11077 -1.491848,0.077 -2.965841,0.46861 -4.467786,0.33975 0,0 -1.20749,0.83655 -1.20749,0.83655 z"
       inkscape:export-filename="/home/chen/Code/sunchen.me/assets/img/inkscape/gm2_SM_loop.png"
       inkscape:export-xdpi="96"
       inkscape:export-ydpi="96" />
    <path
       style="fill:#2b0000;stroke-width:0.264583"
       id="path1137"
       d="m 48.561582,146.06977 c 1.2597,-0.442 2.4834,-0.98103 3.767447,-1.3512 0.119616,0.0135 0.256003,-0.022 0.358847,0.0406 0.403185,0.24526 -0.370891,1.77485 -0.455444,2.07538 -0.04862,0.17281 -0.04718,0.35592 -0.07077,0.53389 -0.0047,0.14335 -0.0095,0.28671 -0.01423,0.43007 0,0 0.07297,-0.0328 0.07297,-0.0328 v 0 c 0.192183,-0.22795 0.384368,-0.4559 0.576551,-0.68384 0.201912,-0.26072 0.427522,-0.5047 0.605734,-0.78216 0.225243,-0.35067 1.146519,-2.01271 0.410618,-2.35036 -0.148595,-0.0682 -0.326975,10e-4 -0.490463,0.002 -1.314726,0.41435 -2.587565,0.94144 -3.874768,1.43241 0,0 -0.886481,0.68638 -0.886481,0.68638 z"
       inkscape:export-filename="/home/chen/Code/sunchen.me/assets/img/inkscape/gm2_SM_loop.png"
       inkscape:export-xdpi="96"
       inkscape:export-ydpi="96" />
    <path
       style="fill:#2b0000;stroke-width:0.264583"
       id="path1139"
       d="m 71.291457,143.59019 c 0.602041,0.97856 1.648153,1.64758 2.179886,2.67325 0.08198,0.15813 0.115779,0.33689 0.173667,0.50533 0.878203,-0.13967 -1.264512,1.52219 -0.919024,1.15448 0.188825,-0.20097 0.789656,-0.22928 0.674052,-0.47963 -0.11416,-0.24723 -0.511831,0.18663 -0.771541,0.26851 -0.240339,0.0758 -0.485264,0.13612 -0.727895,0.20419 -0.773676,0.11725 -1.416897,0.44801 -2.084557,0.83187 0,0 -0.06319,0.0491 -0.06319,0.0491 v 0 c -0.03719,0.0734 -0.167394,0.15969 -0.111575,0.22011 0.220239,0.2384 0.855009,-0.30652 0.967666,-0.10814 1.473041,-0.40362 2.120122,-0.7099 3.606911,-1.57241 0.315659,-0.18312 0.646666,-0.44369 0.742342,-0.82278 0.03853,-0.15268 -0.0094,-0.3148 -0.0141,-0.4722 -0.578635,-1.21475 -1.730335,-2.00467 -2.4209,-3.15375 0,0 -1.231741,0.70211 -1.231741,0.70211 z"
       inkscape:export-filename="/home/chen/Code/sunchen.me/assets/img/inkscape/gm2_SM_loop.png"
       inkscape:export-xdpi="96"
       inkscape:export-ydpi="96" />
    <path
       style="fill:#2b0000;stroke-width:0.264583"
       id="path1141"
       d="m 96.215609,159.40668 c 1.395195,1.22654 2.551634,2.6749 3.599005,4.20118 0.245856,0.52066 0.905826,1.31582 0.636676,1.97447 -0.0567,0.13888 -0.44152,0.39604 -0.30747,0.32869 0.33202,-0.16681 0.89492,-0.26369 0.91639,-0.63463 0.0177,-0.30496 -0.59456,0.14048 -0.89185,0.21073 -1.124718,0.31059 -2.346982,0.18449 -3.47354,0.4602 -0.785011,0.19212 -1.531888,0.51888 -2.311877,0.73047 0,0 -0.0639,0.0481 -0.0639,0.0481 v 0 c 0.195194,-0.005 0.39039,-0.0102 0.585584,-0.0153 0.148701,0.0788 0.278305,0.22351 0.446106,0.23644 0.367432,0.0283 0.733158,-0.0757 1.099307,-0.11741 1.064159,-0.12132 1.296728,-0.15754 2.341745,-0.29752 1.438645,-0.2741 1.228825,-0.13614 2.954055,-1.31555 0.12927,-0.0884 0.19615,-0.25873 0.22429,-0.41277 0.13178,-0.72129 -0.5858,-1.39468 -0.90331,-1.93446 -1.092575,-1.49637 -2.231712,-2.95999 -3.566493,-4.2515 0,0 -1.284716,0.78881 -1.284716,0.78881 z"
       inkscape:export-filename="/home/chen/Code/sunchen.me/assets/img/inkscape/gm2_SM_loop.png"
       inkscape:export-xdpi="96"
       inkscape:export-ydpi="96" />
    <path
       style="fill:#2b0000;stroke-width:0.264583"
       id="path1183"
       d="m 143.71248,170.10097 c 1.84758,-0.22269 3.64858,-0.72933 5.51714,-0.73405 0.16839,0.0726 0.38177,0.0823 0.50517,0.21792 0.55636,0.61167 -0.46205,2.46016 -0.63367,3.07103 -0.063,0.22406 -0.0547,0.46224 -0.082,0.69336 -0.0288,0.19044 -0.0576,0.38088 -0.0864,0.57133 0,0 0.0729,-0.0329 0.0729,-0.0329 v 0 c 0.21265,-0.27405 0.4253,-0.54809 0.63795,-0.82214 0.24345,-0.33175 0.52099,-0.64098 0.73033,-0.99523 0.35971,-0.60871 1.24228,-2.66332 0.58779,-3.306 -0.15047,-0.14776 -0.39286,-0.15349 -0.58929,-0.23023 -1.89458,0.0487 -3.73457,0.52529 -5.60672,0.78522 0,0 -1.05322,0.78166 -1.05322,0.78166 z"
       inkscape:export-filename="/home/chen/Code/sunchen.me/assets/img/inkscape/gm2_bsm_loop.png"
       inkscape:export-xdpi="96"
       inkscape:export-ydpi="96" />
    <path
       style="fill:#2b0000;stroke-width:0.264583"
       id="path1185"
       d="m 160.13602,152.81412 c -0.0495,0.0427 -0.20866,0.15387 -0.14863,0.12799 1.45378,-0.62692 2.82264,-1.51795 4.38108,-1.89064 0.27138,-0.0649 0.55473,-0.061 0.83209,-0.0915 0.14537,0.10303 0.33668,0.16124 0.43612,0.3091 0.11194,0.16645 0.1158,0.38437 0.1616,0.57966 0.068,0.2898 0.16165,0.57764 0.17955,0.87477 0.0418,0.69418 -0.0716,1.38911 -0.095,2.08415 0,0 0.0721,-0.0347 0.0721,-0.0347 v 0 c 0.65982,-1.68701 0.31716,-0.73227 0.87295,-2.47158 0.37307,-1.16752 0.79593,-1.60391 -0.38372,-2.26793 -0.30738,0.04 -0.62161,0.0441 -0.92214,0.12004 -2.25148,0.56886 -4.23954,1.9688 -6.28162,3.00448 0,0 0.89562,-0.34389 0.89562,-0.34389 z"
       inkscape:export-filename="/home/chen/Code/sunchen.me/assets/img/inkscape/gm2_bsm_loop.png"
       inkscape:export-xdpi="96"
       inkscape:export-ydpi="96" />
    <path
       style="fill:#2b0000;stroke-width:0.264583"
       id="path1187"
       d="m 186.05194,152.31092 c 0.8211,1.18916 2.41977,1.49071 3.73189,1.86025 1.81652,0.47119 2.20197,0.3388 3.99001,-1.02705 0.17201,-0.1314 0.22437,-0.3758 0.2845,-0.58374 0.0733,-0.25339 0.0739,-0.52233 0.11089,-0.7835 -0.0615,-1.21906 -0.18888,-2.7512 -1.23902,-3.57687 -0.23308,-0.18326 -0.53054,-0.2649 -0.79582,-0.39735 0,0 -0.0697,0.0393 -0.0697,0.0393 v 0 c -0.0666,0.31799 -0.18028,0.62967 -0.1997,0.95398 -0.0786,1.31191 0.75521,2.50933 0.55572,3.83446 -0.0505,0.24371 -0.064,0.49814 -0.15145,0.73115 -0.069,0.18362 -0.50539,0.52354 -0.3107,0.49971 0.45257,-0.0554 0.85572,-0.34204 1.22357,-0.61143 0.15243,-0.11162 -0.36507,0.11111 -0.55374,0.12091 -0.41054,0.0213 -0.98483,-0.13026 -1.37126,-0.21217 -1.24926,-0.31692 -2.8235,-0.5949 -3.59486,-1.72788 0,0 -1.61033,0.88028 -1.61033,0.88028 z"
       inkscape:export-filename="/home/chen/Code/sunchen.me/assets/img/inkscape/gm2_bsm_loop.png"
       inkscape:export-xdpi="96"
       inkscape:export-ydpi="96" />
    <path
       style="fill:#2b0000;stroke-width:0.264583"
       id="path1312"
       d="m 73.632083,114.63913 c -0.527534,1.21843 -0.970457,2.47381 -1.390655,3.73285 -0.113046,0.33872 -0.260417,0.66894 -0.329806,1.01922 -0.04694,0.23697 -0.01042,0.48303 -0.01564,0.72455 0.202165,0.47455 0.07658,0.28501 0.334632,0.59439 0,0 0.07176,-0.0354 0.07176,-0.0354 v 0 c 0.385783,-0.62201 0.162798,-0.26511 0.671443,-1.06914 0.161732,-0.31407 0.34865,-0.61641 0.485196,-0.94222 0.138369,-0.33017 0.222369,-0.68058 0.337032,-1.01971 0.427466,-1.26426 0.87898,-2.52265 1.440971,-3.73448 0,0 -1.604939,0.72991 -1.604939,0.72991 z" />
    <path
       style="fill:#2b0000;stroke-width:0.264583"
       id="path1314"
       d="m 74.088979,114.65927 c 0.916598,1.56128 1.739746,3.1898 2.811166,4.65167 0.780555,0.61041 0.360965,0.40683 1.237631,0.6525 0,0 0.06924,-0.0401 0.06924,-0.0401 v 0 c 0.211076,-0.87587 0.189269,-0.41644 0.01783,-1.37973 -0.775216,-1.63575 -1.797794,-3.1389 -2.670474,-4.72375 0,0 -1.465384,0.83938 -1.465384,0.83938 z" />
    <path
       style="fill:#2b0000;stroke-width:0.264583"
       id="path1316"
       d="m 72.140854,119.13621 c 0.918567,-0.0957 1.868035,-0.11992 2.771503,-0.32965 0.689681,-0.1601 0.970039,-0.31604 1.633275,-0.59826 0,0 0.06429,-0.0476 0.06429,-0.0476 v 0 c 0.0048,-0.0953 0.08057,-0.21733 0.01429,-0.286 -0.162425,-0.16825 -0.996736,-0.005 -1.02865,-7.9e-4 -0.69778,0.0854 -1.394433,0.18026 -2.093007,0.25946 0,0 -1.361686,1.00298 -1.361686,1.00298 z" />
    <path
       style="fill:#2b0000;stroke-width:0.264583"
       id="path1318"
       d="m 68.095476,169.48801 c -0.07741,0.95233 -0.202965,1.90014 -0.274775,2.85287 -0.0076,0.10059 -0.104164,0.35409 -0.01773,0.3021 0.511197,-0.3074 0.926577,-0.75149 1.389862,-1.12724 0.09407,-1.63957 0.0026,-3.37145 0.811321,-4.84992 0.130384,-0.0952 0.524947,-0.37598 0.391157,-0.28562 -2.424734,1.63765 -0.37502,0.0348 -0.08519,1.4428 -0.07939,0.73824 -0.755113,1.13761 -1.091478,1.72821 0.01566,0.47353 0.569542,0.58128 0.915583,0.77259 0.463055,0.256 0.383701,0.22724 0.788403,0.59049 0.736912,0.96623 0.951121,1.69004 -0.09994,2.48443 0.449284,-0.27295 0.927415,-0.50328 1.347856,-0.81886 0.134496,-0.10095 -0.313666,0.124 -0.476755,0.16502 -0.166772,0.042 -0.339026,0.0581 -0.509183,0.083 -0.71062,0.10397 -1.408295,0.12558 -2.125437,0.13963 0,0 -0.06715,0.0435 -0.06715,0.0435 v 0 c 0.01622,0.32384 -0.02966,0.57719 0.201882,0.8447 0.914791,1.0569 3.337446,-1.65103 3.58208,-1.25298 0.111969,-0.11726 0.246644,-0.21645 0.335904,-0.3518 0.514938,-0.78088 -0.06597,-1.73502 -0.559046,-2.34858 -0.40809,-0.36076 -0.369861,-0.36529 -0.824815,-0.62702 -0.128288,-0.0738 -0.685516,-0.24362 -0.778525,-0.38978 -0.01826,-0.0287 0.0097,-0.0673 0.0145,-0.10101 0.427979,-0.58157 1.008999,-1.08489 1.0136,-1.86817 -0.04031,-0.12309 -0.05099,-0.26025 -0.12092,-0.36927 -0.781801,-1.21873 -2.866133,0.13686 -3.462073,0.8488 -0.655206,1.5186 -0.420129,3.17854 -0.549706,4.79263 0.438253,-0.0758 0.900806,-0.0648 1.314762,-0.22741 0.09166,-0.036 0.0072,-0.1969 0.01505,-0.29507 0.01685,-0.20984 0.03982,-0.41916 0.05914,-0.62879 0.06873,-0.74566 0.139957,-1.49096 0.243192,-2.23288 0,0 -1.381591,0.68369 -1.381591,0.68369 z" />
    <path
       style="fill:#2b0000;stroke-width:0.264583"
       id="path1729"
       d="m 24.614941,78.063303 c 1.688432,0.0913 3.366,-0.951918 4.27119,-2.349732 0.315233,-0.706666 0.32099,-1.733685 -0.615582,-1.94759 -0.179755,-0.04106 -0.368372,-0.01709 -0.552559,-0.02564 -2.01465,0.427509 -3.821107,1.703872 -4.28623,3.746569 -0.07544,0.331311 -0.09065,0.67351 -0.135969,1.010267 0.02143,1.744855 0.769433,3.736427 2.655602,4.219334 0.421316,0.107868 0.865868,0.08271 1.298804,0.124066 2.275088,-0.369946 1.109654,-0.09288 3.485298,-0.876163 0,0 0.06392,-0.04811 0.06392,-0.04811 v 0 c -1.183121,-0.224795 -0.537911,-0.139538 -1.94047,-0.216045 -0.376772,-0.05377 -0.764082,-0.05777 -1.130316,-0.161306 -1.800783,-0.509103 -2.523028,-2.263127 -2.513084,-3.985617 0.144866,-0.942877 0.297934,-1.77188 0.917664,-2.536635 0.158535,-0.195633 0.789203,-0.576802 0.542675,-0.52551 -0.451053,0.09385 -0.842397,0.389403 -1.211792,0.664726 -0.16509,0.123047 0.390138,-0.131805 0.585207,-0.19771 0.172683,-0.01622 0.345073,-0.06136 0.51805,-0.04865 0.856263,0.06289 0.79026,1.028878 0.515792,1.594168 -0.461105,0.688176 -1.533174,1.46704 0.463629,0.182372 0.421413,-0.271124 -1.57551,0.710184 -1.405097,0.313933 0,0 -1.526727,1.063281 -1.526727,1.063281 z" />
    <path
       style="fill:#2b0000;stroke-width:0.264583"
       id="path1731"
       d="m 88.835187,80.762032 c 1.708449,-0.877998 3.244304,-1.825916 3.771479,-3.739242 0.06413,-1.455037 -1.052603,-1.265296 -2.086481,-0.972773 -2.013899,0.906328 -4.411448,2.260833 -4.712059,4.709875 -0.04424,0.360391 0.02513,0.725757 0.0377,1.088636 0.13217,0.352613 0.195884,0.739161 0.396513,1.057836 0.746506,1.185743 2.293964,1.845669 3.654102,1.876245 0.711337,0.01598 1.414272,-0.157679 2.121408,-0.236519 0,0 0.06526,-0.04627 0.06526,-0.04627 v 0 C 91.77848,84.303496 91.49372,84.072224 91.169222,83.910846 90.768788,83.711708 90.317464,83.626996 89.919145,83.423661 88.807741,82.856304 88.085164,82.074289 87.7783,80.857602 c -0.02088,-1.278064 0.03185,-1.793338 0.803876,-2.873248 0.191992,-0.268557 0.92628,-0.569899 0.648602,-0.748445 -0.330692,-0.212635 -0.701751,0.369321 -1.081831,0.469879 -0.259791,0.06873 0.476552,-0.248521 0.71483,-0.372782 0.802289,-0.282189 2.023806,-0.807707 1.907776,0.561517 -0.224891,0.76137 -0.593617,1.371015 -1.172723,1.92505 -0.150204,0.143701 -0.673709,0.471051 -0.478298,0.400161 0.441605,-0.160202 0.824616,-0.450247 1.236924,-0.67537 0,0 -1.522269,1.217668 -1.522269,1.217668 z" />
    <path
       style="fill:#2b0000;stroke-width:0.264583"
       id="path1733"
       d="m 12.196926,180.26263 c 2.292124,0.17332 4.23707,-1.19439 6.10233,-2.31458 1.29038,-1.11518 0.819372,-1.84282 -0.522239,-2.48672 -0.938446,-0.30887 -1.940928,-0.29565 -2.818447,0.20443 -2.239069,1.27599 -1.713947,0.81464 -2.783672,1.96444 -0.830886,1.18355 -1.28131,2.62868 -0.831183,4.0582 0.08654,0.27485 0.236566,0.52551 0.354849,0.78826 0.192642,0.22519 0.348534,0.48795 0.577927,0.67556 1.904856,1.55793 4.898048,0.46599 6.921485,-0.18356 0,0 0.06376,-0.0483 0.06376,-0.0483 v 0 c -1.566724,-0.003 -3.974361,0.212 -5.25547,-0.8102 -0.216493,-0.17274 -0.361821,-0.41943 -0.542731,-0.62914 -0.111959,-0.24763 -0.255682,-0.48323 -0.335877,-0.74289 -0.418237,-1.3542 0.04278,-2.73329 0.824267,-3.84865 0.763478,-0.77577 0.802845,-0.69663 -0.483024,-0.0426 -0.216276,0.11 0.427596,-0.23388 0.656361,-0.31476 0.464314,-0.16416 0.937014,-0.22152 1.427112,-0.17549 0.225454,0.0212 0.44332,0.0926 0.66498,0.13894 1.288056,0.55515 1.588411,1.12266 0.390682,2.1132 0.297911,-0.15362 0.585322,-0.32958 0.893732,-0.46086 0.274488,-0.11683 -0.520221,0.29364 -0.791651,0.41741 -0.997431,0.45483 -2.085609,0.72496 -3.180506,0.77028 0,0 -1.332686,0.92704 -1.332686,0.92704 z" />
    <path
       style="fill:#2b0000;stroke-width:0.264583"
       id="path1735"
       d="m 20.876456,174.38249 c 1.035457,-0.0103 2.142277,0.13859 3.161059,-0.12013 0.429831,-0.10916 0.836796,-0.29402 1.255195,-0.44104 0,0 0.06449,-0.0473 0.06449,-0.0473 v 0 c -0.04878,-0.12393 -0.02646,-0.31378 -0.146352,-0.37179 -0.445471,-0.21555 -2.296205,0.11115 -2.918695,-0.0288 0,0 -1.415695,1.00909 -1.415695,1.00909 z" />
    <path
       style="fill:#2b0000;stroke-width:0.264583"
       id="path1737"
       d="m 102.83084,183.8326 c 1.73464,0.66285 3.68942,0.025 5.30385,-0.70033 0.72785,-0.47631 1.50591,-0.88357 2.18356,-1.42894 0.18201,-0.14648 0.27535,-0.38636 0.34796,-0.60842 0.34478,-1.05437 -0.60154,-1.49687 -1.38858,-1.78552 -2.09015,-0.40159 -4.2807,1.1426 -5.09581,3.03804 -0.1406,0.32695 -0.20814,0.68068 -0.31222,1.02103 -0.20167,1.43386 0.15784,2.88403 1.52395,3.63936 0.94574,0.52291 1.54273,0.44375 2.59673,0.51982 2.21821,-0.53471 1.18313,-0.26457 3.10876,-0.79677 0,0 0.0638,-0.0483 0.0638,-0.0483 v 0 c -1.24881,0.12653 -0.65919,0.1924 -1.774,-0.1446 -0.38369,-0.0729 -0.77615,-0.10928 -1.15106,-0.21872 -1.37775,-0.40218 -2.48033,-1.3289 -2.55461,-2.84105 -0.0165,-0.3354 0.054,-0.66944 0.081,-1.00417 0.26738,-0.84528 0.26494,-1.09626 0.81049,-1.80921 0.18807,-0.24578 0.93641,-0.55035 0.64866,-0.66427 -0.35512,-0.14059 -0.79125,0.21248 -1.023,0.51607 -0.29682,0.38882 1.69236,-0.72722 1.4631,-0.11363 0.51337,0.16121 1.17748,0.32802 1.30309,0.96552 0.0324,0.16429 0.0129,0.34268 -0.043,0.50051 -0.0688,0.19413 -0.52132,0.47822 -0.3214,0.52773 0.32474,0.0804 0.62011,-0.2513 0.93017,-0.37696 -1.59993,0.78714 -3.4683,1.42039 -5.24801,0.88859 0,0 -1.45333,0.92422 -1.45333,0.92422 z" />
    <path
       style="fill:#2b0000;stroke-width:0.264583"
       id="path1739"
       d="m 112.44057,178.61926 c 1.55896,-0.27219 3.06394,-0.71054 4.57626,-1.16862 0,0 0.0643,-0.0476 0.0643,-0.0476 v 0 c -0.32724,-0.15649 -0.58813,-0.32282 -0.9746,-0.31539 -0.75618,0.0145 -1.5064,0.32653 -2.24654,0.44679 0,0 -1.41939,1.08485 -1.41939,1.08485 z" />
    <path
       style="fill:#2b0000;stroke-width:0.264583"
       id="path1741"
       d="m 139.06165,188.09113 c 2.45254,0.42035 4.55097,-1.26953 6.47195,-2.51265 0.85898,-0.96873 1.06121,-2.22924 -0.30575,-2.87055 -0.23219,-0.10893 -0.49236,-0.14386 -0.73854,-0.21579 -0.27496,0.004 -0.55357,-0.0323 -0.8249,0.0125 -0.28252,0.0466 -0.567,0.123 -0.81912,0.25871 -1.533,0.82514 -3.00726,1.46656 -3.49128,3.2112 -0.0857,0.30902 -0.0788,0.63651 -0.11826,0.95477 0.0926,0.31398 0.12751,0.65111 0.27778,0.94193 0.70392,1.36223 2.378,2.00821 3.83025,2.00611 0.46533,-7.9e-4 0.92545,-0.0984 1.38818,-0.14757 1.89825,-0.59058 1.01672,-0.2984 2.64856,-0.86453 0,0 0.0634,-0.0487 0.0634,-0.0487 v 0 c -1.02022,0.16897 -0.51883,0.16445 -1.50391,0.0315 -1.6221,-0.15387 -3.70567,-0.34497 -4.55902,-1.99607 -0.13664,-0.26437 -0.16501,-0.57185 -0.24752,-0.85778 0.11926,-0.81651 0.063,-1.02173 0.52384,-1.74546 0.16806,-0.26395 0.87059,-0.55029 0.60583,-0.71707 -0.31174,-0.19638 -0.70454,0.24966 -1.00139,0.46788 -0.44071,0.32398 1.86874,-0.98215 1.59546,-0.38367 0.23505,0.0528 0.4817,0.0683 0.70515,0.15835 1.2549,0.50569 1.03617,1.66582 0.26569,2.48681 0.27994,-0.11588 0.90375,-0.64379 0.83983,-0.34764 -0.0709,0.3285 -0.57227,0.35443 -0.87347,0.50348 -1.07545,0.53221 -2.28621,0.88907 -3.4922,0.83033 0,0 -1.2406,0.844 -1.2406,0.844 z" />
    <path
       style="fill:#2b0000;stroke-width:0.264583"
       id="path1743"
       d="m 147.27346,181.2009 c 0.76657,-0.003 1.57415,0.10208 2.3313,-0.0675 0.56939,-0.12754 1.11428,-0.34679 1.67142,-0.52019 0,0 0.0646,-0.0472 0.0646,-0.0472 v 0 c -0.10613,-0.15525 -0.14732,-0.38763 -0.31839,-0.46576 -0.51613,-0.23573 -1.49655,0.0488 -2.07418,-0.0893 0,0 -1.67474,1.18999 -1.67474,1.18999 z" />
    <path
       style="fill:#2b0000;stroke-width:0.264583"
       id="path1745"
       d="m 213.13926,190.47814 c 2.71089,0.46535 5.40349,-0.0318 8.01077,-0.77802 1.20016,-0.54833 3.66061,-1.29405 3.8738,-2.68285 0.15718,-1.02398 -1.03476,-1.40172 -1.71647,-1.70371 -0.40486,-0.0812 -0.8041,-0.19872 -1.21457,-0.24356 -2.52414,-0.27573 -4.23673,0.69013 -6.31048,2.11829 -0.29928,0.20611 -0.51011,0.51769 -0.76516,0.77654 -0.16576,0.27878 -0.37686,0.53519 -0.49728,0.83635 -0.58073,1.45226 0.50422,2.52401 1.7497,3.08777 0.43708,0.19783 0.90737,0.31206 1.36105,0.46809 2.6017,0.57526 5.35093,0.91639 8.00377,0.46211 0.53422,-0.0915 1.05593,-0.24507 1.58389,-0.3676 0.32443,-0.0362 0.64885,-0.0723 0.97327,-0.10851 0,0 0.0645,-0.0473 0.0645,-0.0473 v 0 c -0.26006,-0.0108 -0.52013,-0.0216 -0.78019,-0.0325 -0.22018,-0.10126 -0.42566,-0.2441 -0.66055,-0.30376 -0.6572,-0.16693 -1.94867,-0.18671 -2.56468,-0.2214 -1.61121,-0.0908 -3.22924,-0.18842 -4.79475,-0.6172 -1.3917,-0.47611 -3.73049,-1.21906 -2.92781,-3.21032 0.11094,-0.2752 0.3053,-0.50888 0.45794,-0.76332 0.22592,-0.23061 0.76632,-0.38138 0.67775,-0.69182 -0.078,-0.27338 -1.0456,0.43862 -0.77129,0.36398 0.39315,-0.10698 0.74034,-0.34852 1.13165,-0.46204 1.23088,-0.35707 2.49627,-0.31747 3.72931,-0.0108 0.52853,0.23293 1.11203,0.35949 1.42197,0.90987 0.0916,0.1626 0.12523,0.37029 0.0872,0.55298 -0.0452,0.21692 -0.51807,0.47546 -0.32317,0.58086 0.25522,0.13802 1.06045,-0.46472 0.81056,-0.31728 -0.37814,0.22309 -0.79904,0.36413 -1.19856,0.54619 -2.66606,0.80826 -5.4024,1.25375 -8.19654,0.99712 0,0 -1.21566,0.86179 -1.21566,0.86179 z" />
    <path
       style="fill:#2b0000;stroke-width:0.264583"
       id="path1747"
       d="m 224.2686,181.56494 c 1.6416,0.19575 3.2434,-0.13807 4.84967,-0.43275 0,0 0.0649,-0.0468 0.0649,-0.0468 v 0 c -1.17536,-0.61623 -1.92201,-0.72862 -3.25571,-0.70856 0,0 -1.65882,1.18813 -1.65882,1.18813 z" />
  </g>
</svg>
