<?xml version="1.0" encoding="UTF-8" standalone="no"?>
<!-- Created with Inkscape (http://www.inkscape.org/) -->

<svg
   width="210mm"
   height="297mm"
   viewBox="0 0 210 297"
   version="1.1"
   id="svg5"
   sodipodi:docname="gm2_electron.svg"
   inkscape:export-filename="/home/chen/Code/sunchen.me/assets/img/inkscape/gm2_electron.png"
   inkscape:export-xdpi="96"
   inkscape:export-ydpi="96"
   inkscape:version="1.1 (ce6663b3b7, 2021-05-25)"
   xmlns:inkscape="http://www.inkscape.org/namespaces/inkscape"
   xmlns:sodipodi="http://sodipodi.sourceforge.net/DTD/sodipodi-0.dtd"
   xmlns="http://www.w3.org/2000/svg"
   xmlns:svg="http://www.w3.org/2000/svg">
  <sodipodi:namedview
     id="namedview7"
     pagecolor="#ffffff"
     bordercolor="#666666"
     borderopacity="1.0"
     inkscape:pageshadow="2"
     inkscape:pageopacity="0.0"
     inkscape:pagecheckerboard="0"
     inkscape:document-units="mm"
     showgrid="false"
     inkscape:zoom="0.67081229"
     inkscape:cx="107.33256"
     inkscape:cy="561.25984"
     inkscape:window-width="1584"
     inkscape:window-height="1140"
     inkscape:window-x="0"
     inkscape:window-y="24"
     inkscape:window-maximized="0"
     inkscape:current-layer="layer1" />
  <defs
     id="defs2" />
  <g
     inkscape:label="Layer 1"
     inkscape:groupmode="layer"
     id="layer1">
    <path
       style="fill:#000000;fill-opacity:1;fill-rule:nonzero;stroke:none;stroke-width:0.264583"
       id="path42"
       d="m 88.012716,69.443951 c -2.352625,-0.526124 -4.840123,-0.641855 -7.227734,-0.269343 -0.708702,0.110572 -1.404017,0.294394 -2.106028,0.441592 -3.603125,1.116782 -7.169914,2.774058 -10.0257,5.287984 -1.545486,1.360482 -1.900578,1.986994 -3.149658,3.612986 -2.328452,3.514878 -3.871952,7.494063 -4.636148,11.63761 -0.153749,0.833644 -0.238236,1.67858 -0.357354,2.51787 -0.347126,3.968954 0.233325,7.92846 1.452755,11.7087 0.243179,0.75385 0.534379,1.49135 0.801569,2.23702 1.177158,2.91273 2.776164,5.62424 4.912937,7.93734 1.274045,1.37919 1.8582,1.79525 3.282248,2.99291 2.843954,2.18501 6.015578,3.92434 9.485437,4.87938 0.691703,0.19038 1.398236,0.32208 2.097352,0.48312 3.500292,0.65425 7.083123,0.62518 10.553835,-0.19395 0.676746,-0.15972 1.338805,-0.37627 2.008209,-0.56441 3.885218,-1.35431 7.672404,-3.39141 10.507944,-6.4266 0.51697,-0.55336 0.97119,-1.16218 1.45678,-1.74328 1.9474,-2.76217 3.5546,-5.80093 4.60737,-9.02092 0.71395,-2.18371 0.78733,-3.01204 1.21169,-5.294155 0.53892,-3.846063 0.57718,-7.775385 -0.27995,-11.581527 -0.55364,-2.458535 -0.95972,-3.245644 -1.86712,-5.576551 -1.52152,-3.446153 -3.63825,-6.622328 -6.61557,-8.981776 -1.95859,-1.552136 -2.52949,-1.672783 -4.772103,-2.752019 -3.670358,-1.319538 -7.652993,-2.026287 -11.564855,-1.639988 -1.827498,0.180467 -4.65705,0.849456 -6.477177,1.24709 0,0 -0.06405,0.04793 -0.06405,0.04793 v 0 c 3.626491,-0.146114 0.979184,-0.07851 4.851001,-0.06411 0.973608,0.0036 1.948047,-0.04779 2.920833,-0.0076 2.896023,0.119629 5.756939,0.599559 8.468154,1.649341 2.223624,1.054119 2.792457,1.170758 4.735877,2.69744 2.96344,2.327974 5.05964,5.471364 6.57916,8.884087 0.90065,2.30828 1.3087,3.096133 1.85221,5.532604 0.84447,3.785579 0.79247,7.693596 0.23953,11.514184 -0.17929,0.91558 -0.31978,1.83963 -0.53787,2.74675 -0.99695,4.14673 -2.89519,8.04761 -5.39169,11.49157 -1.32155,1.5433 -1.50319,1.88739 -3.04119,3.1782 -0.52464,0.44031 -1.11811,0.7942 -1.64127,1.23628 -0.0766,0.0647 0.37604,-0.13702 0.28662,-0.0916 -1.797053,0.91287 -1.733085,0.82878 -3.642448,1.5519 -0.665302,0.19316 -1.323014,0.41471 -1.99591,0.57949 -3.450757,0.84505 -7.023148,0.90871 -10.515709,0.28445 -0.694081,-0.15676 -1.395171,-0.2852 -2.082244,-0.47028 -3.4568,-0.93116 -6.631501,-2.6173 -9.46848,-4.7856 -1.449974,-1.20334 -1.976186,-1.56515 -3.277631,-2.95126 -2.136543,-2.27551 -3.771744,-4.93815 -4.96537,-7.81692 -0.269039,-0.73929 -0.563851,-1.4697 -0.807116,-2.21787 -1.21697,-3.742779 -1.784731,-7.677218 -1.457077,-11.607985 0.116142,-0.831458 0.196268,-1.668748 0.348427,-2.494375 0.759373,-4.120414 2.338385,-8.067235 4.661445,-11.552496 0.484029,-0.626494 0.928688,-1.285489 1.452089,-1.879484 2.45672,-2.788071 4.811943,-4.010776 8.333716,-5.06167 0.70648,-0.159101 1.405919,-0.353552 2.119443,-0.477308 2.457193,-0.42618 4.914738,-0.224062 7.367124,0.102987 0,0 1.373698,-0.957737 1.373698,-0.957737 z"
       inkscape:export-filename="/home/chen/Code/sunchen.me/assets/img/inkscape/gm2_electron.png"
       inkscape:export-xdpi="96"
       inkscape:export-ydpi="96" />
    <path
       style="fill:#000000;fill-opacity:1;fill-rule:nonzero;stroke:none;stroke-width:0.264583"
       id="path44"
       d="m 36.787497,117.57604 c 3.162244,-1.44907 6.310196,-2.92651 9.41796,-4.48924 3.541411,-1.84583 7.039306,-3.77418 10.514967,-5.74061 1.717181,-0.98113 1.511464,-0.86177 3.782074,-2.1731 0.08461,-0.0489 1.595752,-0.8204 0.462645,-0.66437 0,0 -0.07302,0.0327 -0.07302,0.0327 v 0 c -0.524269,0.31845 -1.043617,0.64281 -1.573299,0.95238 -0.226383,0.13231 -0.915057,0.51176 -0.680292,0.39496 0.265068,-0.13186 1.026681,-0.59016 0.771372,-0.44027 -0.396238,0.23263 -0.796116,0.459 -1.194173,0.6885 -3.5277,2.015 -7.067878,4.00982 -10.674702,5.88081 -3.127388,1.57923 -6.28904,3.08864 -9.475658,4.54482 0,0 -1.277871,1.01344 -1.277871,1.01344 z"
       inkscape:export-filename="/home/chen/Code/sunchen.me/assets/img/inkscape/gm2_electron.png"
       inkscape:export-xdpi="96"
       inkscape:export-ydpi="96" />
    <path
       style="fill:#000000;fill-opacity:1;fill-rule:nonzero;stroke:none;stroke-width:0.264583"
       id="path46"
       d="m 115.41741,82.339142 c 0.25445,-0.157369 0.51897,-0.299514 0.76334,-0.472104 0.17727,-0.125196 -0.75358,0.430543 -0.56149,0.329549 3.3448,-1.758587 -0.47001,0.156107 3.32684,-1.785398 1.96323,-1.003895 2.06575,-1.024588 4.08988,-1.953498 3.1487,-1.391301 6.34515,-2.679475 9.42688,-4.217331 1.14951,-0.686861 0.58586,-0.32567 1.69091,-1.083646 0,0 0.0623,-0.05012 0.0623,-0.05012 v 0 c 0.18678,-0.298347 0.19341,-0.216546 -0.23295,-0.07969 -3.12797,1.480463 -6.28183,2.900439 -9.46674,4.254783 -3.7525,1.717241 -7.44857,3.572586 -10.94329,5.77665 0,0 1.84427,-0.719198 1.84427,-0.719198 z"
       inkscape:export-filename="/home/chen/Code/sunchen.me/assets/img/inkscape/gm2_electron.png"
       inkscape:export-xdpi="96"
       inkscape:export-ydpi="96" />
    <ellipse
       style="fill:#ff0000;stroke-width:0.264583"
       id="path96"
       cx="51.173946"
       cy="90.588585"
       rx="1.6433741"
       ry="54.96627"
       inkscape:export-filename="/home/chen/Code/sunchen.me/assets/img/inkscape/gm2_electron.png"
       inkscape:export-xdpi="96"
       inkscape:export-ydpi="96" />
    <ellipse
       style="fill:#ff0000;stroke-width:0.264583"
       id="path98"
       cx="76.468681"
       cy="90.904099"
       rx="1.4067304"
       ry="55.702484"
       inkscape:export-filename="/home/chen/Code/sunchen.me/assets/img/inkscape/gm2_electron.png"
       inkscape:export-xdpi="96"
       inkscape:export-ydpi="96" />
    <ellipse
       style="fill:#ff0000;stroke-width:0.264583"
       id="path100"
       cx="99.002563"
       cy="91.666611"
       rx="1.5119081"
       ry="55.308086"
       inkscape:export-filename="/home/chen/Code/sunchen.me/assets/img/inkscape/gm2_electron.png"
       inkscape:export-xdpi="96"
       inkscape:export-ydpi="96" />
    <ellipse
       style="fill:#ff0000;stroke-width:0.264583"
       id="path104"
       cx="124.20526"
       cy="92.521133"
       rx="1.2095191"
       ry="55.557865"
       inkscape:export-filename="/home/chen/Code/sunchen.me/assets/img/inkscape/gm2_electron.png"
       inkscape:export-xdpi="96"
       inkscape:export-ydpi="96" />
    <path
       style="fill:#ff0000;stroke-width:0.264583"
       id="path139"
       d="m 50.29659,36.552912 c -1.72121,3.361431 -3.482607,6.713728 -5.023395,10.163008 1.254289,-1.152821 -0.858679,1.382141 -0.40695,1.310423 0.607467,-0.09645 0.607546,-0.726776 0.794284,-1.125283 0.398661,-0.85076 1.123132,-2.031945 1.578496,-2.806827 0.868416,-1.355527 1.531086,-2.830132 2.423086,-4.171207 0.189349,-0.284675 0.365239,-0.586253 0.611333,-0.823595 0.170397,-0.164338 0.760267,-0.54348 0.613537,-0.357703 -0.341786,0.432739 -0.810995,0.747405 -1.216491,1.121108 1.257965,0.950061 2.112754,2.311257 3.233614,3.40365 0.320503,0.312362 0.630189,0.650465 1.015193,0.878642 0.409818,0.242882 0.889153,0.34231 1.33373,0.513466 0.348707,0.156837 0.697412,0.313674 1.04612,0.470514 0,0 0.06785,-0.04238 0.06785,-0.04238 v 0 c -0.160954,-0.27247 -0.321908,-0.544941 -0.482862,-0.817409 -0.124497,-0.365688 -0.182311,-0.761389 -0.373494,-1.097063 -0.2119,-0.372046 -0.535466,-0.668544 -0.816221,-0.991804 -1.048975,-1.207788 -2.102686,-2.440688 -3.296841,-3.504631 -0.797658,0.268658 -1.61527,0.48409 -2.392976,0.805977 -0.422436,0.174842 -0.692629,0.782642 -0.856491,1.123135 -0.582773,1.210955 -0.996106,2.503466 -1.486961,3.751413 -0.393184,1.046977 -0.56212,1.601253 -1.073494,2.577721 -0.148492,0.283544 -0.450421,0.503085 -0.501052,0.819129 -0.01942,0.121148 0.263758,0.07707 0.367877,0.01217 0.599662,-0.373838 0.693124,-1.360548 1.263774,-1.70207 1.877637,-3.318965 3.478996,-6.794333 5.148729,-10.220454 0,0 -1.570395,0.710081 -1.570395,0.710081 z"
       inkscape:export-filename="/home/chen/Code/sunchen.me/assets/img/inkscape/gm2_electron.png"
       inkscape:export-xdpi="96"
       inkscape:export-ydpi="96" />
    <path
       style="fill:#ff0000;stroke-width:0.264583"
       id="path141"
       d="m 77.634321,38.414991 c -0.860565,0.564523 -1.76689,1.0648 -2.581693,1.693569 -0.452112,0.348888 -2.003375,2.235991 -2.264055,2.561664 -1.01962,1.273831 -1.933356,2.619743 -2.88367,3.944255 -0.14628,0.147532 -0.627401,0.529831 -0.438843,0.442595 0.50624,-0.234212 1.015627,-0.504148 1.414557,-0.894006 0.173519,-0.169571 0.133403,-0.466783 0.21258,-0.696119 0.141674,-0.410368 0.285594,-0.820383 0.449731,-1.222293 0.520133,-1.273622 0.700981,-1.556895 1.330888,-2.775352 -1.354714,-0.476737 2.238423,-1.656432 1.478984,-1.965592 -0.36953,-0.150432 -0.893683,0.336153 -0.947399,0.731496 -0.03773,0.277659 0.566343,0.0404 0.829403,0.136925 0.683191,0.250687 1.433597,0.866709 1.997969,1.277337 1.447919,1.032769 2.665706,2.546484 4.379611,3.17923 0.423698,0.156425 0.881023,0.199395 1.321533,0.29909 0,0 0.06787,-0.04234 0.06787,-0.04234 v 0 c -0.06669,-0.332217 -0.06679,-0.685118 -0.200067,-0.996654 -0.641374,-1.499243 -2.528872,-2.582445 -3.687895,-3.632713 -0.54071,-0.394573 -2.260415,-1.782514 -3.045894,-1.52413 -2.130631,0.700879 -2.897804,1.457539 -3.767039,3.251705 -0.578723,1.296485 -1.153581,2.600971 -1.609093,3.947562 -0.09252,0.273529 -0.519713,0.773684 -0.237151,0.833173 1.002763,0.211114 1.462069,-0.444042 1.960636,-1.000082 1.480955,-1.867451 2.90898,-3.799221 4.52419,-5.554538 0.349676,-0.380006 1.06253,-0.582914 1.092473,-1.098452 0.02207,-0.380056 -0.702795,0.292909 -1.054193,0.439367 0,0 1.656564,-1.335694 1.656564,-1.335694 z"
       inkscape:export-filename="/home/chen/Code/sunchen.me/assets/img/inkscape/gm2_electron.png"
       inkscape:export-xdpi="96"
       inkscape:export-ydpi="96" />
    <path
       style="fill:#ff0000;stroke-width:0.264583"
       id="path143"
       d="m 97.203341,39.654122 c -0.939223,1.523421 -2.019366,3.000984 -2.74973,4.643618 -0.10419,0.234331 -0.57486,1.748779 -0.689139,2.11183 -0.04491,0.499321 -0.01117,0.29423 -0.07492,0.619035 0,0 0.07198,-0.03491 0.07198,-0.03491 v 0 c 0.08575,-0.423836 0.0013,-0.129352 0.465426,-0.792485 0.608568,-0.887527 1.266883,-1.740525 1.867045,-2.633758 1.041419,-1.549971 1.902947,-3.220278 3.004225,-4.732319 0,0 -1.894882,0.818991 -1.894882,0.818991 z"
       inkscape:export-filename="/home/chen/Code/sunchen.me/assets/img/inkscape/gm2_electron.png"
       inkscape:export-xdpi="96"
       inkscape:export-ydpi="96" />
    <path
       style="fill:#ff0000;stroke-width:0.264583"
       id="path145"
       d="m 97.269204,40.289792 c 1.222888,1.376214 2.319946,2.855656 3.452046,4.30517 0.3092,0.395888 0.5917,0.815843 0.9396,1.17819 0.31119,0.324109 0.68558,0.58098 1.02837,0.871468 0.40563,0.151831 0.81126,0.303663 1.21689,0.455494 0,0 0.0688,-0.04086 0.0688,-0.04086 v 0 c -0.005,-0.390022 -0.01,-0.780044 -0.015,-1.170066 -0.17599,-0.389967 -0.30837,-0.802728 -0.52798,-1.169903 -0.25686,-0.429443 -0.59026,-0.808276 -0.89334,-1.206437 -1.12135,-1.473086 -2.257,-2.946892 -3.526829,-4.295859 0,0 -1.742535,1.072806 -1.742535,1.072806 z"
       inkscape:export-filename="/home/chen/Code/sunchen.me/assets/img/inkscape/gm2_electron.png"
       inkscape:export-xdpi="96"
       inkscape:export-ydpi="96" />
    <path
       style="fill:#ff0000;stroke-width:0.264583"
       id="path147"
       d="m 122.33075,38.138459 c -0.99788,2.572639 -2.18987,5.060895 -3.07112,7.67851 -0.28018,-0.664797 -0.1757,0.759095 0.006,0.644824 0.42823,-0.268769 0.85734,-0.556964 1.19716,-0.931312 0.25842,-0.284673 0.38048,-0.668311 0.5624,-1.00702 0.46534,-0.866357 0.91391,-1.741646 1.37916,-2.608043 0.31729,-0.543044 0.85831,-1.54627 1.30546,-2.053116 0.15865,-0.179835 0.74964,-0.598133 0.55652,-0.455946 -0.42529,0.313132 -1.02108,0.494832 -1.25347,0.969087 -0.1033,0.210812 0.40714,0.237207 0.59061,0.383661 0.29366,0.234405 0.55769,0.503682 0.83654,0.755526 1.12803,0.873633 2.07286,2.126041 3.40199,2.729558 4.24117,1.92578 -0.50275,-0.781971 2.42269,0.953527 0,0 0.0677,-0.04256 0.0677,-0.04256 v 0 c -2.01764,-2.187499 0.86177,1.120439 -1.03134,-1.824257 -0.68896,-1.071663 -2.30359,-1.901251 -3.13362,-2.885885 -0.28253,-0.259834 -0.55407,-0.53214 -0.84757,-0.779499 -0.21004,-0.177009 -0.39039,-0.53856 -0.66108,-0.491938 -2.36171,0.406787 -2.80419,1.492155 -3.59663,3.351657 -0.22369,0.533244 -0.80022,1.918285 -1.0412,2.450532 -0.14422,0.318531 -0.49028,0.597283 -0.455,0.945155 0.035,0.344784 1.36562,-0.272325 0.83834,-0.628415 1.39678,-2.593853 2.67243,-5.251796 3.73038,-8.003561 0,0 -1.80433,0.849516 -1.80433,0.849516 z"
       inkscape:export-filename="/home/chen/Code/sunchen.me/assets/img/inkscape/gm2_electron.png"
       inkscape:export-xdpi="96"
       inkscape:export-ydpi="96" />
    <path
       style="fill:#ff0000;stroke-width:0.264583"
       id="path149"
       d="m 139.20425,33.622204 c 0.67246,1.677959 0.81126,3.501057 1.09651,5.269596 0.17421,1.080121 0.0469,0.731128 0.35366,1.376039 0.637,-0.450908 1.42623,-0.741103 1.911,-1.352727 0.24353,-0.30725 0.0655,-0.78142 0.0906,-1.17267 0.0387,-0.603533 0.0603,-1.208109 0.10088,-1.811518 0.10161,-1.509842 0.15947,-2.637303 0.49494,-4.117033 0.13528,-0.596688 0.35058,-1.172363 0.52587,-1.758545 0.25689,-0.451932 0.51378,-0.903864 0.77067,-1.355796 0.32856,-0.302395 0.76469,-0.519171 0.98569,-0.907188 0.15741,-0.276368 -0.897,0.251796 -0.7811,0.547981 0.11462,0.292942 0.6131,-0.167163 0.9276,-0.173574 0.77417,-0.01577 0.72023,0.106 1.16502,0.588989 0.37638,1.559919 -1.01392,2.854838 -0.99216,4.370543 0.004,0.2476 0.10901,0.483103 0.16352,0.724654 0.94584,1.406882 3.0732,1.199288 3.99204,2.670278 0.1666,0.266706 0.19303,0.598565 0.28955,0.897848 -0.0782,0.373108 -0.0838,0.769178 -0.23454,1.11932 -0.59444,1.380807 -2.19024,2.811714 -3.55065,3.39249 -0.0933,0.03985 0.0673,-0.317048 -0.0332,-0.302681 -0.77268,0.110482 -1.50353,0.419934 -2.2553,0.629899 0,0 -0.0643,0.04758 -0.0643,0.04758 v 0 c 2.09577,0.734086 0.9641,0.595368 4.41112,-1.176515 1.46652,-0.753843 2.99798,-2.006438 3.58288,-3.610896 0.14078,-0.386172 0.11572,-0.813879 0.17357,-1.220819 -0.12192,-0.325681 -0.17362,-0.687192 -0.36576,-0.977043 -0.94107,-1.419643 -2.92751,-1.277643 -3.96138,-2.536425 -0.0477,-0.211918 -0.14357,-0.418534 -0.14312,-0.635754 0.003,-1.566291 1.47657,-2.935788 0.91322,-4.56121 -0.1698,-0.185275 -0.28899,-0.435097 -0.50941,-0.555824 -0.45216,-0.247652 -1.40444,-0.225853 -1.84048,-0.02761 -1.16975,0.531823 -2.86342,1.30243 -3.6842,2.509887 -0.28411,0.417955 -0.44955,0.905275 -0.67432,1.357911 -0.1496,0.582215 -0.33563,1.156269 -0.44881,1.746649 -0.3762,1.962507 -0.38662,3.973325 -0.63135,5.951882 -0.0487,0.393226 -0.54718,0.995381 -0.19295,1.172908 0.49413,0.247648 1.05948,-0.315423 1.58922,-0.473136 -0.38552,-0.51449 -0.22965,-0.228719 -0.41272,-1.257935 -0.3189,-1.792927 -0.43216,-3.645908 -1.08461,-5.362445 0,0 -1.67725,0.972891 -1.67725,0.972891 z"
       inkscape:export-filename="/home/chen/Code/sunchen.me/assets/img/inkscape/gm2_electron.png"
       inkscape:export-xdpi="96"
       inkscape:export-ydpi="96" />
    <path
       style="fill:#ff0000;stroke-width:0.264583"
       id="path151"
       d="m 139.56812,22.865362 c -0.17002,0.0966 -0.34558,0.184044 -0.51006,0.289799 -0.43021,0.276606 -0.93735,0.756197 0.0372,0.858248 0.54791,0.05737 1.94566,-0.189615 2.38551,-0.253807 2.20095,-0.425468 4.53343,-0.813293 6.5112,-1.945976 0.3045,-0.174392 0.58719,-0.384379 0.88079,-0.576568 0.13524,-0.501337 0.0297,-1.076946 -0.066,-1.587484 0.6952,-0.437229 -1.04052,0.651872 -1.15219,0.800215 -0.13222,0.175633 0.43776,-0.04879 0.65759,-0.05036 0.32374,-0.0023 0.64727,0.01976 0.97047,0.03872 1.05823,0.06207 1.23639,0.09536 2.28964,0.211462 0.31649,0.07901 0.64531,0.119112 0.94945,0.237036 0.90058,0.349191 0.80855,0.700429 0.48012,1.45093 -0.0878,0.200548 -0.28726,0.375218 -0.28008,0.59401 0.005,0.139628 0.20592,0.188848 0.30888,0.283272 0,0 0.0736,-0.03146 0.0736,-0.03146 v 0 c 0.77695,-0.586822 1.49584,-0.94707 1.95475,-1.813499 0.75949,-1.433904 -0.71142,-1.80408 -1.77898,-1.937839 -1.23205,-0.08636 -5.81762,-0.743674 -6.13792,1.143964 0.27033,0.468604 0.97363,0.475165 1.12209,0.751035 0.0262,0.04879 -0.0166,0.109558 -0.0249,0.164337 0.10443,-0.04034 0.41861,-0.158979 0.31329,-0.121015 -0.78387,0.282565 -1.54334,0.351271 -2.36359,0.51032 -0.49997,0.09695 -0.99376,0.223767 -1.49271,0.325874 -0.51075,0.104523 -1.02409,0.195974 -1.53614,0.293962 -2.22793,0.348604 -0.51997,0.107687 -2.35044,0.311053 -0.13365,0.01485 -0.26555,0.06851 -0.39948,0.05634 -0.23604,-0.02144 0.60038,-0.594745 0.55677,-0.541239 0,0 -1.39891,0.538672 -1.39891,0.538672 z"
       inkscape:export-filename="/home/chen/Code/sunchen.me/assets/img/inkscape/gm2_electron.png"
       inkscape:export-xdpi="96"
       inkscape:export-ydpi="96" />
    <path
       style="fill:#2b0000;stroke-width:0.264583"
       id="path459"
       d="m 131.82077,69.308376 c 2.16022,0.43557 4.35254,0.676063 6.53694,0.952246 0.3222,0.06382 2.74365,0.187918 2.69011,0.731877 -0.01,0.09648 -0.0875,0.17304 -0.13119,0.259562 -1.31377,1.499446 -2.86673,2.775635 -4.32092,4.137107 -0.91689,1.03352 -2.07859,1.900695 -2.86532,3.048722 0.36485,0.187208 0.0647,0.06426 0.93693,-0.262414 0,0 0.0733,-0.03212 0.0733,-0.03212 v 0 c 1.03655,-0.485605 0.63521,-0.237003 1.25243,-0.661357 1.00248,-0.983782 1.86521,-2.107399 2.91807,-3.043378 0.86807,-0.817579 1.74877,-1.621105 2.61969,-2.435537 0.34228,-0.320085 1.0081,-0.931331 1.31534,-1.328579 0.11617,-0.150215 0.19336,-0.326893 0.29003,-0.490339 0.008,-0.134655 0.0542,-0.27282 0.0227,-0.403958 -0.20011,-0.833459 -2.36098,-0.69555 -2.95636,-0.826876 -2.17547,-0.242115 -4.3588,-0.476798 -6.49956,-0.945769 0,0 -1.88219,1.300811 -1.88219,1.300811 z"
       inkscape:export-filename="/home/chen/Code/sunchen.me/assets/img/inkscape/gm2_electron.png"
       inkscape:export-xdpi="96"
       inkscape:export-ydpi="96" />
    <path
       style="fill:#2b0000;stroke-width:0.264583"
       id="path461"
       d="m 71.70304,62.04441 c -0.98512,1.000982 -1.790694,2.148861 -2.465453,3.375805 -0.708443,1.402432 -1.110081,2.924122 -1.413955,4.457549 -0.281519,1.555811 -0.33696,3.139361 -0.333957,4.716648 0.01865,1.710381 0.16179,3.41575 0.274622,5.121563 0.0387,1.838265 0.33139,3.634058 0.789117,5.409999 0.602083,2.034382 1.266531,4.050671 1.935279,6.064126 0.896241,2.487406 1.790197,4.975833 2.692439,7.461139 0.81755,2.288411 2.035485,4.398311 3.112561,6.568131 1.251384,2.7976 2.639976,5.51371 4.339521,8.06526 1.638261,2.37235 3.682897,4.41831 5.655911,6.50707 1.893641,2.03647 3.69988,4.15092 5.683012,6.10213 1.543603,1.53938 3.462491,2.50183 5.451115,3.32257 1.7116,0.69214 3.521918,1.07346 5.330348,1.41061 0.81772,0.0451 2.05331,0.46637 2.85195,0.13835 0.46663,-0.19165 0.88438,-0.48558 1.32657,-0.72837 0,0 0.0637,-0.0484 0.0637,-0.0484 v 0 c 0.13888,-0.17718 0.40208,-0.30688 0.41663,-0.53153 0.008,-0.12975 -0.24676,-0.0868 -0.37531,-0.10628 -0.71169,-0.10801 -1.44944,-0.0424 -2.15497,-0.21277 -1.80871,-0.31784 -3.62452,-0.66114 -5.339032,-1.34047 -1.983499,-0.78859 -3.899706,-1.70316 -5.459182,-3.20388 -2.034849,-1.90338 -3.832606,-4.02788 -5.742379,-6.0534 -1.996524,-2.06287 -4.120263,-4.02354 -5.769607,-6.39243 -1.710425,-2.53174 -3.172338,-5.19592 -4.425982,-7.98394 -1.09933,-2.1479 -2.312646,-4.246969 -3.178669,-6.504973 -0.950246,-2.458106 -1.953885,-4.896837 -2.797541,-7.394609 -0.669456,-2.005278 -1.367377,-4.002257 -1.973651,-6.027659 -0.443921,-1.76208 -0.745262,-3.546882 -0.798378,-5.36766 -0.129688,-1.697461 -0.265387,-3.395329 -0.293534,-5.098349 -0.01407,-1.552551 0.02209,-3.11228 0.274738,-4.647644 0.294196,-1.503979 0.675892,-2.995194 1.359739,-4.37579 0.636865,-1.187117 1.398357,-2.298835 2.334578,-3.273295 0,0 -1.37023,0.570489 -1.37023,0.570489 z"
       inkscape:export-filename="/home/chen/Code/sunchen.me/assets/img/inkscape/gm2_electron.png"
       inkscape:export-xdpi="96"
       inkscape:export-ydpi="96" />
    <path
       style="fill:#2b0000;stroke-width:0.264583"
       id="path463"
       d="m 105.02513,124.69081 c 0.60336,1.38785 1.70961,2.44468 2.63308,3.61419 0.1907,0.37643 0.3584,0.5399 0.26857,0.98193 -0.19583,0.96373 -1.68289,2.05257 -2.35608,2.66633 -0.11658,0.10858 -1.17252,1.04143 -1.32933,1.33749 -0.0329,0.0622 0.066,0.12434 0.099,0.1865 0,0 0.0743,-0.0297 0.0743,-0.0297 v 0 c 1.20342,-0.70123 2.38243,-1.42108 3.38408,-2.40556 0.84642,-0.77733 2.63154,-2.00298 2.12728,-3.40641 -0.0667,-0.18572 -0.19668,-0.34218 -0.29502,-0.51326 -0.9529,-1.11292 -2.08736,-2.1279 -2.62875,-3.52408 0,0 -1.97705,1.09261 -1.97705,1.09261 z"
       inkscape:export-filename="/home/chen/Code/sunchen.me/assets/img/inkscape/gm2_electron.png"
       inkscape:export-xdpi="96"
       inkscape:export-ydpi="96" />
    <path
       style="fill:#2b0000;stroke-width:0.264583"
       id="path465"
       d="m 71.692327,60.141863 c 1.260528,0.761481 2.404756,1.771144 3.739851,2.408668 0.25154,0.120113 0.52401,0.190283 0.786014,0.285425 1.131665,0.03739 0.603062,0.02442 1.585719,0.04222 0,0 0.06688,-0.04389 0.06688,-0.04389 v 0 c -0.148841,-0.566309 -0.06751,-0.260704 -0.244982,-0.916551 -1.32301,-1.090261 -2.966922,-1.762175 -4.335519,-2.804813 0,0 -1.597964,1.028946 -1.597964,1.028946 z"
       inkscape:export-filename="/home/chen/Code/sunchen.me/assets/img/inkscape/gm2_electron.png"
       inkscape:export-xdpi="96"
       inkscape:export-ydpi="96" />
    <path
       style="fill:#2b0000;stroke-width:0.264583"
       id="path467"
       d="m 80.191368,66.945716 c 0.515438,0.400565 1.053764,1.467183 1.590053,1.777492 0.277612,0.160633 0.620493,0.163552 0.926656,0.259132 0.228925,0.07147 0.451763,0.161148 0.677643,0.241718 0,0 0.06813,-0.04193 0.06813,-0.04193 v 0 c -0.05152,-0.186365 -0.126058,-0.367853 -0.154572,-0.559096 -0.0388,-0.260266 0.05052,-0.543378 -0.04629,-0.788067 -0.195641,-0.494535 -1.239819,-1.305174 -1.521643,-1.822405 0,0 -1.539981,0.933154 -1.539981,0.933154 z"
       inkscape:export-filename="/home/chen/Code/sunchen.me/assets/img/inkscape/gm2_electron.png"
       inkscape:export-xdpi="96"
       inkscape:export-ydpi="96" />
    <path
       style="fill:#2b0000;stroke-width:0.264583"
       id="path469"
       d="m 105.7762,117.25909 c 0.54784,0.78548 0.0367,0.21073 0.95576,0.77198 0.16298,0.0995 0.30142,0.23454 0.45213,0.35182 0,0 0.0695,-0.0397 0.0695,-0.0397 v 0 c -0.0104,-0.19737 -0.0413,-0.39472 -0.0312,-0.59211 0.0564,-1.10535 0.23446,-0.35666 -0.0943,-1.26434 0,0 -1.35182,0.7723 -1.35182,0.7723 z"
       inkscape:export-filename="/home/chen/Code/sunchen.me/assets/img/inkscape/gm2_electron.png"
       inkscape:export-xdpi="96"
       inkscape:export-ydpi="96" />
    <path
       style="fill:#2b0000;stroke-width:0.264583"
       id="path471"
       d="m 107.79307,120.80283 c 0.18827,0.76039 -0.10931,2.87654 0.23316,3.45566 0.0719,0.12152 0.22252,0.17379 0.33378,0.26069 0.0989,0.0528 0.19785,0.10564 0.29678,0.15845 0,0 0.0707,-0.0374 0.0707,-0.0374 v 0 c 0.0697,-0.13985 0.13937,-0.27971 0.20906,-0.41956 0.0933,-0.19062 0.21598,-0.36947 0.27984,-0.57185 0.30686,-0.97257 -0.0754,-2.55094 0.0102,-3.58822 0,0 -1.43351,0.74221 -1.43351,0.74221 z"
       inkscape:export-filename="/home/chen/Code/sunchen.me/assets/img/inkscape/gm2_electron.png"
       inkscape:export-xdpi="96"
       inkscape:export-ydpi="96" />
    <path
       style="fill:#2b0000;stroke-width:0.264583"
       id="path473"
       d="m 106.01596,114.10055 c 0.35659,0.96992 0.34964,2.09044 0.81192,3.01692 0.49807,0.0991 0.25708,0.0666 0.72198,0.1046 0,0 0.0699,-0.039 0.0699,-0.039 v 0 c 0.28601,-0.45385 0.13453,-0.20883 0.4524,-0.73631 -0.0266,-1.04877 -0.50527,-2.05404 -0.7227,-3.07185 0,0 -1.33348,0.7256 -1.33348,0.7256 z"
       inkscape:export-filename="/home/chen/Code/sunchen.me/assets/img/inkscape/gm2_electron.png"
       inkscape:export-xdpi="96"
       inkscape:export-ydpi="96" />
    <circle
       id="path491"
       style="fill:#2b0000;stroke:#000000;stroke-width:0.264583"
       cx="320.88257"
       cy="219.12392"
       r="0.052536666" />
  </g>
</svg>
