<?xml version="1.0" encoding="UTF-8" standalone="no"?>
<!-- Created with Inkscape (http://www.inkscape.org/) -->

<svg
   width="210mm"
   height="297mm"
   viewBox="0 0 210 297"
   version="1.1"
   id="svg2603"
   inkscape:version="1.1 (ce6663b3b7, 2021-05-25)"
   sodipodi:docname="magnetic_dipole.svg"
   inkscape:export-filename="/home/chen/Code/sunchen.me/assets/img/inkscape/magnetic_dipole.png"
   inkscape:export-xdpi="96"
   inkscape:export-ydpi="96"
   xmlns:inkscape="http://www.inkscape.org/namespaces/inkscape"
   xmlns:sodipodi="http://sodipodi.sourceforge.net/DTD/sodipodi-0.dtd"
   xmlns="http://www.w3.org/2000/svg"
   xmlns:svg="http://www.w3.org/2000/svg">
  <sodipodi:namedview
     id="namedview2605"
     pagecolor="#ffffff"
     bordercolor="#666666"
     borderopacity="1.0"
     inkscape:pageshadow="2"
     inkscape:pageopacity="0.0"
     inkscape:pagecheckerboard="0"
     inkscape:document-units="mm"
     showgrid="false"
     inkscape:zoom="0.67081229"
     inkscape:cx="107.33256"
     inkscape:cy="561.25984"
     inkscape:window-width="1584"
     inkscape:window-height="1140"
     inkscape:window-x="0"
     inkscape:window-y="24"
     inkscape:window-maximized="0"
     inkscape:current-layer="layer1" />
  <defs
     id="defs2600" />
  <g
     inkscape:label="Layer 1"
     inkscape:groupmode="layer"
     id="layer1">
    <path
       style="fill:#000000;fill-opacity:1;fill-rule:nonzero;stroke:none;stroke-width:0.264583"
       id="path42"
       d="m 67.669082,122.13328 c -0.649811,-0.95236 -1.898372,-1.56865 -3.064123,-1.28443 -0.384363,0.0937 -0.726649,0.31313 -1.089973,0.4697 -0.755798,0.54518 -1.587645,0.99805 -2.267392,1.63554 -0.391964,0.36759 -0.656936,0.85797 -0.901575,1.33642 -0.800238,1.56508 -1.144827,3.42272 -0.62588,5.13535 0.158157,0.52195 0.472736,0.983 0.709105,1.4745 0.368255,0.38038 0.669792,0.8393 1.104762,1.14113 1.83846,1.27572 4.982197,1.25011 6.918187,0.20904 0.987039,-0.53078 1.876878,-1.22524 2.815315,-1.83786 0.271878,-0.46497 0.647264,-0.88328 0.815636,-1.39491 0.773102,-2.34922 -0.753274,-4.88527 -2.891409,-5.85188 -0.618048,-0.27941 -1.310809,-0.34928 -1.966211,-0.52392 -2.118124,-0.22547 -3.969115,0.58815 -5.871384,1.36291 0,0 -0.0629,0.0494 -0.0629,0.0494 v 0 c 0.483552,-0.18562 0.946843,-0.43664 1.450654,-0.55686 1.12022,-0.2673 2.052569,-0.0728 3.185682,0.0326 1.449001,0.45932 2.193086,0.49908 3.307426,1.62121 1.144418,1.15242 1.753177,3.01817 1.206191,4.59485 -0.167733,0.48349 -0.53181,0.87451 -0.797717,1.31177 0.445638,0.66243 0.313603,0.34574 -1.614778,0.84046 -1.710521,0.43883 -3.74201,0.4069 -5.26202,-0.61116 -0.428926,-0.28728 -0.733287,-0.72686 -1.099928,-1.09029 -0.238419,-0.47421 -0.553024,-0.91726 -0.715253,-1.42264 -0.542502,-1.68999 -0.19049,-3.49859 0.643964,-5.02723 0.260133,-0.47654 0.702976,-0.83909 0.952222,-1.32141 0.04059,-0.0785 -0.106736,-0.14097 -0.160105,-0.21145 0.357254,-0.17364 0.691396,-0.40645 1.071764,-0.52092 1.197216,-0.3603 2.382247,0.23672 3.271417,0.99279 0,0 0.938323,-0.5527 0.938323,-0.5527 z" />
    <path
       style="fill:#000000;fill-opacity:1;fill-rule:nonzero;stroke:none;stroke-width:0.264583"
       id="path48"
       d="m 60.922321,128.89034 c 1.635236,0.0495 3.268252,-0.045 4.899824,-0.14182 1.13271,-0.0688 2.225397,-0.37869 3.318616,-0.65724 0,0 0.06429,-0.0476 0.06429,-0.0476 v 0 c -0.69742,-0.16279 -1.380711,-0.31407 -2.106823,-0.23365 -1.598734,0.0912 -3.200969,0.17884 -4.802124,0.0886 0,0 -1.373783,0.9917 -1.373783,0.9917 z" />
    <path
       style="fill:#000000;fill-opacity:1;fill-rule:nonzero;stroke:none;stroke-width:0.264583"
       id="path50"
       d="m 64.70287,126.12734 c -0.124513,1.55619 -0.223644,3.11444 -0.317008,4.6728 0.06327,1.10455 -0.176069,0.67801 0.647454,1.31674 0,0 0.0713,-0.0363 0.0713,-0.0363 v 0 c 0.758118,-1.34412 0.552378,-0.6643 0.722519,-2.00457 0.08347,-1.56457 0.219982,-3.12474 0.346493,-4.68617 0,0 -1.470753,0.73749 -1.470753,0.73749 z" />
    <path
       style="fill:#000000;fill-opacity:1;fill-rule:nonzero;stroke:none;stroke-width:0.264583"
       id="path153"
       d="m 113.92574,90.362199 c -0.36369,0.24219 -0.75322,0.44947 -1.09107,0.72658 -0.87256,0.71568 -1.393,2.4221 -1.47274,3.48915 -0.0283,0.37915 0.0245,0.76002 0.0368,1.14003 0.13071,0.37062 0.20075,0.76862 0.39212,1.11187 0.98991,1.77554 3.13122,2.6561 5.04181,2.9341 0.61676,0.0897 1.24406,0.0779 1.86609,0.11681 3.13225,-0.1641 5.58173,-1.02446 8.00415,-3.14086 0.88819,-0.77599 1.02627,-1.75524 1.34551,-2.80231 0.003,-0.51857 0.0807,-1.04204 0.009,-1.55569 -0.32126,-2.31469 -2.03483,-4.18125 -3.90332,-5.43292 -0.48301,-0.32356 -1.01201,-0.57252 -1.51801,-0.85878 -0.53707,-0.18389 -1.05635,-0.43168 -1.6112,-0.55169 -1.55312,-0.33591 -3.20282,-0.12832 -4.54476,0.75582 -0.91498,0.60285 -1.84588,1.20834 -2.62449,1.97931 -0.40066,0.39673 -0.56724,0.97464 -0.85086,1.46196 -0.23492,0.68049 -0.95622,2.41037 -0.75866,3.21421 0.11296,0.45962 0.57976,0.74828 0.86964,1.12242 0,0 0.0709,-0.0371 0.0709,-0.0371 v 0 c 0.18366,-0.60597 0.40271,-1.20233 0.55098,-1.81792 0.82728,-3.43463 -0.39068,0.24654 0.83974,-3.17833 0.2968,-0.47671 0.71795,-0.89571 0.89039,-1.43013 0.043,-0.13317 -0.46101,-0.12342 -0.3584,-0.21857 0.36988,-0.34298 0.86731,-0.53055 1.34405,-0.69538 1.60067,-0.55345 3.19284,-0.2712 4.717,0.35004 0.50252,0.27797 1.02821,0.51768 1.50757,0.83393 1.84579,1.21771 3.48278,3.04307 3.78228,5.31549 0.0654,0.49588 -0.008,1.00031 -0.0122,1.50046 -0.90869,3.05672 0.21525,-0.18185 -1.29064,2.66335 -0.0365,0.0689 0.16206,0.17099 0.0964,0.21295 -1.62713,1.03985 -3.5947,1.3541 -5.47266,1.52956 -0.64766,-0.0111 -1.29926,0.0389 -1.943,-0.0332 -1.89558,-0.21226 -3.99361,-1.1043 -5.00147,-2.81809 -0.19222,-0.32686 -0.27388,-0.7072 -0.41082,-1.0608 -0.0772,-1.27192 -0.0769,-1.97062 0.4375,-3.17092 0.11441,-0.26694 0.25711,-0.52205 0.41205,-0.7677 0.11135,-0.17653 0.3803,-0.28582 0.38409,-0.4945 0.002,-0.13269 -0.2516,0.0845 -0.3774,0.12682 0,0 0.64336,-0.51996 0.64336,-0.51996 z" />
    <path
       style="fill:#000000;fill-opacity:1;fill-rule:nonzero;stroke:none;stroke-width:0.264583"
       id="path155"
       d="m 116.36569,93.878949 c 0.8614,0.19895 1.7514,0.2257 2.63099,0.25687 0.59688,0.0211 1.60204,0.0626 2.19893,-0.0341 0.40435,-0.0656 0.79303,-0.20564 1.18955,-0.30845 0.27695,-0.0702 0.55391,-0.14036 0.83087,-0.21054 0,0 0.0648,-0.0469 0.0648,-0.0469 v 0 c -0.0776,-0.0745 -0.15513,-0.14894 -0.23269,-0.2234 -0.51267,-0.50874 -0.21609,-0.351 -1.21725,-0.39846 -1.2168,-0.0577 -2.45372,0.0226 -3.65086,-0.25731 0,0 -1.81431,1.22238 -1.81431,1.22238 z" />
    <path
       style="fill:#000000;fill-opacity:1;fill-rule:nonzero;stroke:none;stroke-width:0.264583"
       id="path157"
       d="m 73.958164,125.1655 c 2.62073,-1.5555 5.178578,-3.21381 7.746968,-4.85347 6.7349,-4.55718 13.54364,-9.00197 20.359798,-13.43619 2.72754,-1.79333 5.49351,-3.52708 8.23877,-5.2928 1.18442,-0.76181 2.37958,-1.50054 3.44994,-2.417821 0.0274,-0.33195 0.0756,-0.19389 -0.42527,-0.10799 0,0 -0.0696,0.0394 -0.0696,0.0394 v 0 c -0.51473,0.35984 -0.24254,0.16287 -0.81366,0.59493 -3.54648,2.748831 -7.48816,4.941561 -11.17236,7.493391 -6.864858,4.49912 -13.735918,8.98852 -20.579238,13.52023 -2.63348,1.65693 -5.263075,3.32054 -7.930567,4.9224 0,0 1.195255,-0.46206 1.195255,-0.46206 z" />
    <path
       style="fill:#000000;fill-opacity:1;fill-rule:nonzero;stroke:none;stroke-width:0.264583"
       id="path159"
       d="m 102.31549,103.31919 c 2.05634,-0.82612 4.17008,-1.4878 6.29894,-2.09714 0.76739,-0.17277 1.5137,-0.46857 2.29541,-0.58225 0.39626,-0.0576 0.51172,-0.0571 0.28148,0.23868 -1.03972,1.79798 -2.30507,3.45454 -3.32222,5.26448 -0.10989,0.6349 -0.11342,0.35198 -0.053,0.84716 0,0 0.0734,-0.0319 0.0734,-0.0319 v 0 c 1.00844,-0.91566 0.48524,-0.41648 1.55974,-1.50781 1.31172,-1.76622 2.49583,-3.63422 3.67524,-5.489361 0.0107,-0.14101 0.0754,-0.28838 0.0322,-0.42304 -0.0786,-0.24484 -0.51716,-0.1481 -0.63066,-0.1285 -0.83628,0.14437 -1.62767,0.493 -2.45105,0.685971 -2.12289,0.64636 -4.24236,1.30822 -6.31703,2.09865 0,0 -1.44234,1.12507 -1.44234,1.12507 z" />
    <ellipse
       style="fill:#ff0000;fill-rule:evenodd;stroke-width:0.264583"
       id="path193"
       cx="58.078583"
       cy="124.17094"
       rx="1.3370275"
       ry="55.47403" />
    <ellipse
       style="fill:#ff0000;fill-rule:evenodd;stroke-width:0.264583"
       id="path195"
       cx="84.32283"
       cy="123.6426"
       rx="1.2938874"
       ry="53.587154" />
    <ellipse
       style="fill:#ff0000;fill-rule:evenodd;stroke-width:0.264583"
       id="path197"
       cx="103.84966"
       cy="123.45931"
       rx="1.4987487"
       ry="53.317608" />
    <ellipse
       style="fill:#ff0000;fill-rule:evenodd;stroke-width:0.264583"
       id="path199"
       cx="126.00739"
       cy="123.26524"
       rx="1.8761308"
       ry="53.446987" />
    <path
       style="fill:#ff0000;stroke-width:0.264583"
       id="path267"
       d="m 57.327291,70.461219 c -0.802557,1.23581 -1.390482,2.60557 -2.028604,3.93049 -0.281649,0.58477 -0.585178,1.15969 -0.84116,1.75615 -0.242018,0.56392 -0.434327,1.1479 -0.651491,1.72185 -0.125555,0.49041 -0.251111,0.98083 -0.376667,1.47124 0,0 0.07281,-0.0332 0.07281,-0.0332 v 0 c 0.392895,-0.61188 0.78579,-1.22376 1.178685,-1.83564 0.365204,-0.64065 0.745555,-1.27291 1.095613,-1.92197 1.040519,-1.92927 1.893603,-3.97748 3.163006,-5.77566 0,0 -1.61219,0.68669 -1.61219,0.68669 z" />
    <path
       style="fill:#ff0000;stroke-width:0.264583"
       id="path269"
       d="m 57.198012,70.497239 c 0.258493,1.176 0.64314,2.32339 1.042867,3.45783 0.176395,0.50062 0.300545,1.02471 0.542813,1.49698 0.262474,0.51166 0.64021,0.95545 0.960315,1.43317 0.318974,0.43844 0.63795,0.87689 0.956924,1.31533 0,0 0.06973,-0.0392 0.06973,-0.0392 v 0 c -0.111848,-0.55394 -0.223695,-1.10788 -0.335542,-1.66182 -0.105614,-0.59486 -0.171419,-1.19818 -0.316839,-1.78458 -0.128013,-0.5162 -0.342836,-1.00704 -0.501348,-1.51471 -0.360895,-1.15587 -0.617292,-2.34127 -0.992932,-3.49123 0,0 -1.425992,0.78824 -1.425992,0.78824 z" />
    <path
       style="fill:#ff0000;stroke-width:0.264583"
       id="path271"
       d="m 84.511162,70.795999 c -1.0144,1.79623 -2.22482,3.5181 -3.05741,5.41212 -0.15428,0.35097 -0.25747,0.72224 -0.3862,1.08336 -0.18476,0.33152 -0.36953,0.66304 -0.55429,0.99457 0,0 0.0732,-0.0324 0.0732,-0.0324 v 0 c 0.23114,-0.35206 0.46229,-0.70411 0.69343,-1.05616 1.00267,-1.25397 1.28153,-1.53636 2.14981,-2.88592 0.84712,-1.31666 1.54438,-2.72468 2.34497,-4.06872 0,0 -1.26346,0.55312 -1.26346,0.55312 z" />
    <path
       style="fill:#ff0000;stroke-width:0.264583"
       id="path273"
       d="m 83.255972,72.932009 c 0.61289,0.56707 1.22558,1.1375 1.86834,1.67094 0.34774,0.28859 0.66579,0.62464 1.06077,0.84416 0.48774,0.27109 1.05071,0.37981 1.55834,0.61153 0.43045,0.19648 0.83399,0.44723 1.25099,0.67084 0,0 0.0676,-0.0428 0.0676,-0.0428 v 0 c -2.61887,-2.72478 0.86439,1.04636 -1.53934,-2.07087 -0.26685,-0.34605 -0.62406,-0.61187 -0.93707,-0.91682 -0.59812,-0.58271 -1.18586,-1.18413 -1.8478,-1.69611 0,0 -1.48182,0.92913 -1.48182,0.92913 z" />
    <path
       style="fill:#ff0000;stroke-width:0.264583"
       id="path275"
       d="m 103.59864,72.596809 c -1.10899,1.77488 -2.07362,3.65013 -2.99828,5.52813 -0.34385,1.36578 -0.14959,0.70995 -0.57392,1.97009 0,0 0.0729,-0.0329 0.0729,-0.0329 v 0 c 1.06525,-1.60366 0.46744,-0.75576 1.81738,-2.52665 1.12081,-1.85937 2.1398,-3.77676 3.28124,-5.62354 0,0 -1.59935,0.68485 -1.59935,0.68485 z" />
    <path
       style="fill:#ff0000;stroke-width:0.264583"
       id="path277"
       d="m 102.39333,73.402829 c 0.6776,0.881 1.39962,2.07339 2.38398,2.62981 0.49124,0.27769 1.05666,0.39646 1.58499,0.59469 0,0 0.0681,-0.042 0.0681,-0.042 v 0 c -0.14427,-0.43165 -0.22416,-0.89047 -0.43281,-1.29494 -0.18848,-0.36535 -0.49405,-0.65721 -0.74301,-0.98435 -0.45756,-0.60121 -0.89111,-1.22025 -1.37358,-1.80078 0,0 -1.48764,0.8976 -1.48764,0.8976 z" />
    <path
       style="fill:#ff0000;stroke-width:0.264583"
       id="path279"
       d="m 124.42974,71.691839 c -1.01998,1.08949 -1.82297,2.38979 -2.53316,3.69759 -0.23907,0.44025 -0.5083,0.87133 -0.66887,1.34587 -0.11234,0.33203 -0.0928,0.69487 -0.13918,1.04231 0,0 0.073,-0.0327 0.073,-0.0327 v 0 c 0.42125,-0.51472 0.87302,-1.00589 1.26373,-1.54415 1.21865,-1.67886 2.01997,-3.68641 3.56378,-5.12256 0,0 -1.5593,0.61367 -1.5593,0.61367 z" />
    <path
       style="fill:#ff0000;stroke-width:0.264583"
       id="path281"
       d="m 124.79374,72.213809 c 0.29432,1.51356 0.95541,3.03307 1.87727,4.27417 0.33624,0.45267 0.74062,0.8505 1.11092,1.27575 0.59044,0.32533 1.18088,0.65066 1.77131,0.97599 0,0 0.0685,-0.0414 0.0685,-0.0414 v 0 c -0.19137,-0.56165 -0.38274,-1.12329 -0.57411,-1.68494 -0.51561,-0.82408 -1.11227,-1.73243 -1.55822,-2.6052 -0.49439,-0.96758 -0.80333,-2.00096 -1.1675,-3.01894 0,0 -1.52815,0.82454 -1.52815,0.82454 z" />
    <path
       style="fill:#ff0000;stroke-width:0.264583"
       id="path283"
       d="m 145.15085,71.953559 c 0.53934,3.15952 0.93149,6.34082 1.47412,9.50017 0.0125,0.15895 -0.1122,0.53214 0.0373,0.47685 0.53998,-0.19963 1.10276,-0.51696 1.40178,-1.00891 0.18245,-0.30017 -0.12465,-0.69238 -0.15495,-1.04234 -0.0478,-0.55244 -0.0739,-1.10715 -0.0791,-1.66163 -0.0168,-1.7773 0.059,-2.04132 0.23723,-3.80612 0.44116,-2.32726 1.39316,-4.11884 3.33804,-5.50766 0.1293,-0.0923 -0.48034,0.31231 -0.32555,0.34819 0.36988,0.0858 0.75163,-0.10817 1.12745,-0.16226 0.56944,0.10455 1.13865,0.0595 1.49529,0.6211 0.63414,0.99856 -0.85283,3.05645 -1.33626,3.85904 -0.39925,0.73521 -1.19579,1.70413 -0.73923,2.61713 0.42369,0.84727 1.68571,1.13854 2.4649,1.43948 1.41122,0.58939 3.32333,1.28792 3.79332,2.95429 0.28552,1.01232 -0.0336,1.5452 -0.3194,2.5097 -1.0658,1.71945 -0.45183,0.9563 -1.9418,2.41032 -0.0243,0.0237 0.1016,-0.0848 0.0693,-0.0745 -3.63418,1.15205 0.11778,0.14801 -4.09393,1.19422 0,0 -0.0644,0.0475 -0.0644,0.0475 v 0 c 0.3803,0.10456 0.74671,0.32687 1.1409,0.31367 0.5484,-0.0184 1.09881,-0.172 1.59546,-0.40528 1.65641,-0.77805 3.13242,-1.53265 4.23206,-2.96782 0.31346,-0.40912 0.52035,-0.88983 0.78052,-1.33474 0.28521,-1.05905 0.59153,-1.55234 0.24862,-2.64222 -0.5284,-1.67938 -2.43317,-2.41728 -3.87781,-3.05157 -0.67546,-0.28403 -1.88066,-0.59774 -2.27358,-1.32865 -0.44441,-0.82666 0.34182,-1.77098 0.68614,-2.43546 0.56018,-0.93743 2.09102,-3.01814 1.31051,-4.16258 -0.41157,-0.60346 -1.0519,-0.56496 -1.67899,-0.67812 -0.40025,0.0503 -0.8268,-3e-4 -1.20075,0.15101 -2.59854,1.05138 -4.60499,2.49265 -5.47235,5.23416 -0.17908,0.56602 -0.23321,1.16422 -0.34982,1.74633 -0.0345,0.6219 -0.0903,1.24297 -0.10354,1.86568 -0.0242,1.13939 0.0551,2.4179 0.0736,3.56152 0.006,0.37592 -0.34777,0.97521 -0.004,1.1279 1.9329,0.85903 1.4666,-0.40698 1.33871,-0.92753 -0.52254,-3.18248 -1.06038,-6.36581 -1.2982,-9.58573 0,0 -1.5314,0.80488 -1.5314,0.80488 z" />
    <path
       id="path285"
       style="fill:#ff0000;stroke-width:0.264583"
       d="m 155.28674,62.029506 c -0.53345,0.02307 -1.06902,0.01711 -1.60042,0.06925 -0.66138,0.06489 -1.31628,0.183231 -1.97352,0.281636 -1.79713,0.269067 -3.59619,0.552287 -5.36711,0.963767 l -1.53686,1.17253 c 2.45222,-0.70318 4.99679,-0.95232 7.50032,-1.38699 0.69203,-0.12016 1.3766,-0.27909 2.06499,-0.41858 0.65273,-0.18117 1.3058,-0.362465 1.95853,-0.543634 l 0.0641,-0.04754 c -0.3699,-0.03004 -0.74011,-0.0604 -1.11001,-0.09043 z" />
    <path
       style="fill:#000000;stroke-width:0.264583"
       id="path322"
       d="m 74.68035,128.09243 c 0.798851,-0.17384 1.597943,-0.31177 2.414992,-0.35239 1.12954,0.0101 2.2533,0.16322 3.37607,0.27743 0.79336,0.028 0.33386,0.0744 1.35036,-0.31011 0,0 0.0651,-0.0465 0.0651,-0.0465 v 0 c 0.18271,-0.52117 0.27078,-0.36725 -0.28747,-0.44765 -1.16898,-0.0907 -2.33755,-0.23071 -3.51199,-0.20188 -0.87903,0.0478 -1.744715,0.19771 -2.587884,0.45553 0,0 -0.819179,0.62556 -0.819179,0.62556 z" />
    <path
       style="fill:#000000;stroke-width:0.264583"
       id="path324"
       d="m 86.550852,127.75529 c 0.91871,-0.13079 1.84261,-0.21182 2.76983,-0.24244 0.84447,0.0538 1.02191,-0.0344 1.77092,-0.45556 0,0 0.0645,-0.0474 0.0645,-0.0474 v 0 c 0.7331,-0.76189 -0.007,-0.36911 -0.57398,-0.42082 -0.9223,0.039 -1.84213,0.11037 -2.75933,0.21593 0,0 -1.27191,0.95027 -1.27191,0.95027 z" />
    <path
       style="fill:#000000;stroke-width:0.264583"
       id="path326"
       d="m 95.581352,127.83231 c 1.05757,-0.10268 2.12127,-0.0464 3.17911,0.0191 0.47754,0.0454 0.9575,0.058 1.435668,0.0935 0.0952,0.007 0.19054,0.0414 0.28508,0.028 0.22293,-0.0317 0.59581,-0.26391 0.76021,-0.35329 0,0 0.0706,-0.0375 0.0706,-0.0375 v 0 c 0.35485,-0.29363 0.60206,-0.45019 0.49919,-0.55716 -0.0737,-0.0766 -1.6573,-0.0207 -1.832958,-0.0502 -1.05747,-0.0284 -2.11552,-0.10029 -3.1734,-0.0433 0,0 -1.22354,0.90083 -1.22354,0.90083 z" />
    <path
       style="fill:#000000;stroke-width:0.264583"
       id="path328"
       d="m 106.80118,127.69242 c 1.16918,-0.0779 2.33807,-0.0806 3.50806,-0.0254 0.66903,0.008 0.28006,0.0608 1.1303,-0.33035 0,0 0.0658,-0.0455 0.0658,-0.0455 v 0 c 0.40849,-0.51132 0.51599,-0.38508 0.0142,-0.49724 -1.21301,-0.0251 -2.42607,0.0394 -3.63706,0.10501 0,0 -1.08129,0.79357 -1.08129,0.79357 z" />
    <path
       style="fill:#000000;stroke-width:0.264583"
       id="path330"
       d="m 108.9564,125.30278 c 0.96582,0.6841 1.98384,1.28885 2.96562,1.94941 0.0605,0.0565 0.42148,0.32009 0.39518,0.50171 -0.0283,0.19557 -0.64833,0.45172 -0.48155,0.34575 1.05521,-0.67047 1.52315,-0.87882 0.45039,-0.34875 -1.08805,0.64223 -0.57176,0.33237 -1.55009,0.92755 0,0 -0.0625,0.0499 -0.0625,0.0499 v 0 c 0.22854,-0.006 0.11302,-0.0147 0.34636,0.028 1.08294,-0.44352 0.82722,-0.31576 2.48968,-1.31899 0.2007,-0.12111 0.42742,-0.31237 0.3836,-0.58589 -0.0369,-0.23042 -0.36571,-0.42766 -0.5061,-0.53941 -0.98845,-0.62488 -2.02103,-1.19792 -2.91323,-1.96026 0,0 -1.51738,0.95095 -1.51737,0.95095 z" />
    <path
       style="fill:#000000;stroke-width:0.264583"
       id="path332"
       d="m 117.67897,126.8632 c -0.52191,-0.0818 -1.04962,-0.11027 -1.5733,-0.17768 -0.56325,-0.14258 -0.18697,-0.0671 -1.27933,0.94583 -0.0423,0.0393 0.11555,5.3e-4 0.17322,-0.003 0.22492,-0.0122 0.44722,-0.0468 0.66928,-0.0825 0.45437,-0.0411 0.79549,-0.34611 1.16099,-0.5942 0,0 0.0637,-0.0484 0.0637,-0.0484 v 0 c 0.21721,-0.18977 0.83809,-0.60344 0.1411,-0.38632 -1.2148,0.23033 -0.76843,-0.006 -2.3122,1.09468 -0.03,0.0214 0.0734,-0.006 0.11017,-0.009 0.58889,-0.0219 1.17831,-0.0183 1.76613,0.0282 0,0 1.08027,-0.7683 1.08027,-0.7683 z" />
    <path
       style="fill:#000000;stroke-width:0.264583"
       id="path334"
       d="m 118.12454,127.78806 c 0.63266,0.0356 1.14547,-0.18586 1.71435,-0.43949 0,0 0.0652,-0.0463 0.0652,-0.0463 v 0 c 0.0728,-0.11177 0.1876,-0.20552 0.21844,-0.3353 0.0648,-0.27275 -0.63513,-0.0873 -0.72178,-0.11548 0,0 -1.27625,0.93656 -1.27625,0.93656 z" />
    <path
       style="fill:#000000;stroke-width:0.264583"
       id="path336"
       d="m 126.98798,120.22298 c -1.74068,-0.20508 -3.32076,1.03996 -4.69406,1.8792 -1.12096,0.93168 -2.00829,2.17524 -2.31183,3.62418 -0.0635,0.30335 -0.0735,0.6155 -0.11025,0.92325 0.0135,1.818 0.68599,3.53431 2.01112,4.8009 0.28566,0.27304 0.61057,0.50182 0.91585,0.75273 2.41568,1.70106 4.85704,2.06651 7.74337,2.15321 1.16315,-0.0918 1.72297,-0.0682 2.84823,-0.43114 1.85526,-0.59834 3.99771,-1.89577 5.28776,-3.36251 0.32333,-0.36761 0.57464,-0.79278 0.86196,-1.18917 0.16817,-0.42217 0.39138,-0.82639 0.5045,-1.26653 0.47371,-1.8431 -0.30729,-3.58201 -1.51722,-4.94881 -0.34829,-0.39345 -0.75886,-0.72704 -1.13829,-1.09056 -2.28435,-1.80293 -4.94355,-2.74461 -7.87745,-2.54339 -0.58058,0.0398 -1.15078,0.1743 -1.72617,0.26145 -2.5507,1.06614 -1.33951,0.47887 -3.64299,1.7422 0,0 -0.0625,0.0499 -0.0625,0.0499 v 0 c 1.32213,-0.497 0.62274,-0.29208 2.10476,-0.59181 0.55351,-0.0842 1.10218,-0.21134 1.66053,-0.25273 2.84073,-0.21058 5.52398,0.68568 7.74495,2.44105 0.36669,0.35715 0.76433,0.68507 1.10008,1.07146 1.14496,1.31766 1.86573,2.99639 1.42435,4.75504 -0.10388,0.41392 -0.30981,0.7953 -0.46472,1.19296 -1.04248,1.49623 -0.45062,0.79655 -1.78324,2.09252 -0.0574,0.0746 0.36319,-0.0793 0.2802,-0.0349 -1.32566,0.70951 -2.72448,1.05921 -4.22558,1.10763 -0.49207,-0.007 -0.98515,0.0114 -1.47621,-0.0209 -2.21118,-0.14549 -4.35107,-0.7827 -6.17704,-2.05534 -0.29858,-0.24437 -0.6171,-0.46624 -0.89575,-0.73313 -1.29369,-1.23905 -1.93564,-2.89906 -1.92617,-4.67608 0.0446,-0.30054 0.0662,-0.60541 0.13374,-0.90162 0.31304,-1.37197 1.12263,-2.55782 2.1922,-3.4509 -0.21683,0.0979 -0.78784,0.48789 -0.65047,0.29367 0.15714,-0.22217 0.47084,-0.2746 0.71781,-0.38888 0.73848,-0.34171 1.54187,-0.48026 2.33763,-0.61217 0,0 0.81094,-0.59077 0.81094,-0.59077 z" />
    <path
       style="fill:#000000;stroke-width:0.264583"
       id="path338"
       d="m 125.1134,127.97064 c 1.82534,-0.46257 3.70714,-0.62383 5.5668,-0.88838 1.75015,-0.51491 0.92485,-0.28038 2.47443,-0.70873 0,0 0.0643,-0.0476 0.0643,-0.0476 v 0 c -0.6582,-0.21458 -0.31878,-0.0918 -1.01611,-0.37405 -1.79717,0.10695 -3.59455,0.31282 -5.35656,0.68982 0,0 -1.73284,1.32897 -1.73284,1.32897 z" />
    <path
       style="fill:#000000;stroke-width:0.264583"
       id="path340"
       d="m 135.77281,97.770029 c 1.73463,1.36443 3.21551,2.996101 4.33443,4.905301 0.3763,0.64208 0.68867,1.31955 1.033,1.97933 0.94946,2.11715 1.62666,4.33765 2.23564,6.57172 0.0619,0.22693 0.69914,2.87076 0.93451,3.24797 0.18647,0.29885 0.55312,0.43635 0.82968,0.65452 0.0659,0.18563 0.13175,0.37126 0.19763,0.55689 0,0 0.0702,-0.0384 0.0702,-0.0384 v 0 c -0.0498,-0.19424 -0.0997,-0.38849 -0.1495,-0.58273 0.10372,-0.42362 0.30424,-0.83478 0.31118,-1.27086 0.0114,-0.71883 -0.60385,-2.7686 -0.77239,-3.3438 -0.65179,-2.22449 -1.37813,-4.43207 -2.35867,-6.53694 -0.34257,-0.66671 -0.65367,-1.35055 -1.02771,-2.00014 -1.10062,-1.9114 -2.54672,-3.627461 -4.26634,-5.008681 0,0 -1.37163,0.86583 -1.37163,0.86583 z" />
    <path
       style="fill:#000000;stroke-width:0.264583"
       id="path342"
       d="m 135.90961,97.919709 c 0.0496,0.86908 0.0381,1.7393 0.0435,2.609181 0.003,0.41035 -0.0468,0.82527 0.0146,1.23099 0.0416,0.27419 0.51173,1.49999 0.62758,1.81078 0,0 0.0713,-0.0363 0.0713,-0.0363 v 0 c 0.0938,-0.33773 0.61734,-2.19658 0.658,-2.46326 0.0636,-0.41732 0.0378,-0.84346 0.0526,-1.265351 0.0312,-0.89232 0.0538,-1.78511 0.0821,-2.67752 0,0 -1.54973,0.79146 -1.54973,0.79146 z" />
    <path
       style="fill:#000000;stroke-width:0.264583"
       id="path344"
       d="m 135.89219,97.473679 c 1.63454,0.85414 3.22258,1.83897 5.09703,2.05637 0.60198,0.0698 1.21159,0.0324 1.81739,0.0485 0,0 0.0662,-0.045 0.0662,-0.045 v 0 c -0.24729,-0.25778 -0.45757,-0.55705 -0.74186,-0.77335 -0.68077,-0.51798 -1.58655,-0.82829 -2.34005,-1.20268 -0.84118,-0.41796 -0.93936,-0.51842 -1.66912,-0.96029 -0.15845,-0.096 -0.31947,-0.18757 -0.4792,-0.28136 0,0 -1.75034,1.15777 -1.75034,1.15777 z" />
    <path
       style="fill:#ff0000;stroke-width:0.264583"
       id="path2413"
       d="m 153.86073,60.440764 c 1.22041,0.812 2.60703,1.327022 3.94774,1.902614 0.0771,0.101581 0.90388,0.273121 0.87977,0.536541 -5.3e-4,0.007 -0.33848,0.17453 -0.39674,0.20657 -0.14097,0.0775 -0.27896,0.16033 -0.41843,0.24049 -0.78327,0.44731 -1.5327,0.95231 -2.2579,1.48807 -0.45598,0.33687 -0.3828,0.15216 -0.45387,0.454 0.22024,-0.0663 0.44048,-0.13267 0.66072,-0.199 0,0 0.0739,-0.0306 0.0739,-0.0306 v 0 c 0.29364,-0.13999 0.58728,-0.27997 0.88092,-0.41996 1.09402,-0.66694 2.07713,-1.50634 3.21294,-2.11092 0.1754,-0.113216 0.55665,-0.305069 0.65741,-0.53935 0.21657,-0.503578 -0.79508,-0.712474 -1.03052,-0.837828 -1.36305,-0.500071 -2.76784,-0.974553 -3.96783,-1.811149 0,0 -1.78811,1.120553 -1.78811,1.120552 z" />
  </g>
</svg>
